<svg width="134" height="103" viewBox="0 0 134 103" fill="none" xmlns="http://www.w3.org/2000/svg">
<path d="M38.8343 35.0599H36.2843V51.1599H39.4143V52.0699H23.7943V51.1599H26.9143V19.3399H23.7943V18.4299H38.3143C42.4843 18.4299 45.4343 18.6499 47.1843 19.0799C48.9343 19.5099 50.1543 20.0299 50.8643 20.6399C52.4043 21.8899 53.1743 23.8799 53.1743 26.5999C53.1743 29.3199 52.5043 31.2699 51.1543 32.4399C49.8043 33.6099 47.7543 34.3099 45.0043 34.5299V34.6699C47.6043 35.0199 49.4143 35.7899 50.4343 36.9799C51.4543 38.1699 51.9743 40.1499 51.9743 42.9399V45.4899C51.9743 47.1599 52.0643 48.2799 52.2343 48.8599C52.4143 49.4399 52.7843 49.7299 53.3643 49.7299C53.9443 49.7299 54.3943 49.4699 54.7343 48.9399C55.0743 48.4099 55.3843 47.2999 55.6743 45.5999L56.4943 45.6999C56.1443 48.4299 55.5243 50.2499 54.6443 51.1799C53.7643 52.1099 52.0043 52.5699 49.3843 52.5699C46.7643 52.5699 44.8943 51.9499 43.7843 50.7199C42.6843 49.4899 42.1243 47.1699 42.1243 43.7699V40.2599C42.1243 38.4699 41.8943 37.1499 41.4243 36.3199C40.9643 35.4899 40.1043 35.0699 38.8543 35.0699L38.8343 35.0599ZM36.3043 19.3499V34.1599H37.8443C39.6743 34.1599 41.0243 33.5999 41.9043 32.4799C42.7843 31.3599 43.2243 29.5299 43.2243 26.9999V25.6099C43.2243 23.0799 42.7943 21.3999 41.9543 20.5899C41.1043 19.7699 39.7543 19.3599 37.8943 19.3599H36.3043V19.3499Z" fill="#58595B"/>
<path d="M84.6443 52.0799H73.6843L73.1543 48.5699C72.6443 49.8499 71.8843 50.8399 70.8743 51.5299C69.8643 52.2199 68.3643 52.5599 66.3843 52.5599C61.4143 52.5599 58.9343 49.8799 58.9343 44.5299V30.0599H56.2443V29.1899H67.8743V45.6799C67.8743 47.5999 68.0143 48.8699 68.2843 49.4799C68.5543 50.0899 69.1043 50.3899 69.9143 50.3899C70.7243 50.3899 71.4643 49.8899 72.1043 48.8999C72.7443 47.9099 73.0643 46.5299 73.0643 44.7699V30.0599H70.8543V29.1899H82.0043V51.2099H84.6443V52.0799Z" fill="#58595B"/>
<path d="M104.874 26.7L106.224 25.8799C106.414 24.8899 106.034 24.3899 105.074 24.3899C103.694 24.3899 103.004 25.4499 103.004 27.5599C103.004 28.3899 103.114 29.36 103.344 30.44C105.784 32.07 106.994 34.1699 106.994 36.7099C106.994 39.25 106.114 41.24 104.354 42.65C102.594 44.06 100.204 44.77 97.1943 44.77C95.9443 44.77 94.6443 44.64 93.3043 44.38C91.8943 45.28 91.1843 45.95 91.1843 46.4C91.1843 46.85 92.2143 47.07 94.2643 47.07H99.1643C106.434 47.07 110.074 49.68 110.074 54.9C110.074 57.72 108.974 59.95 106.784 61.61C104.584 63.26 101.164 64.0899 96.5243 64.0899C88.6043 64.0899 84.6543 62.3699 84.6543 58.95C84.6543 57.09 85.8843 55.8099 88.3543 55.0999L91.2343 56.4C90.9743 57.33 90.8543 58.2099 90.8543 59.04C90.8543 61.7999 92.9043 63.1699 97.0043 63.1699C99.5043 63.1699 101.424 62.7099 102.774 61.7799C104.124 60.8499 104.794 59.7 104.794 58.32C104.794 56.9399 104.384 56.02 103.574 55.56C102.754 55.1 101.134 54.86 98.6943 54.86H94.0343C91.4343 54.86 89.5743 54.43 88.4543 53.56C87.3343 52.69 86.7743 51.63 86.7743 50.36C86.7743 49.09 87.1743 48.0399 87.9743 47.1899C88.7743 46.3399 90.2043 45.29 92.2543 44.04C88.5343 42.98 86.6743 40.5499 86.6743 36.7299C86.6743 34.33 87.5343 32.3899 89.2743 30.91C91.0043 29.4399 93.6043 28.7 97.0643 28.7C99.1443 28.7 100.924 29.0999 102.404 29.9C102.214 29.03 102.114 28.25 102.114 27.54C102.114 25.75 102.594 24.4499 103.554 23.65C104.514 22.85 105.584 22.45 106.774 22.45C107.964 22.45 108.914 22.7599 109.634 23.3899C110.354 24.0199 110.714 24.8699 110.714 25.9599C110.714 27.0499 110.424 27.86 109.844 28.3899C109.264 28.9199 108.574 29.18 107.754 29.18C106.934 29.18 106.264 28.96 105.734 28.53C105.204 28.1 104.924 27.48 104.894 26.68L104.874 26.7ZM94.7043 35.6699V38.27C94.7043 40.42 94.8843 41.88 95.2543 42.65C95.6243 43.42 96.1843 43.7999 96.9343 43.7999C97.6843 43.7999 98.2343 43.4199 98.5643 42.6699C98.9043 41.9199 99.0743 40.3699 99.0743 38.0299V35.6699C99.0743 33.1699 98.9143 31.53 98.5943 30.74C98.2743 29.96 97.7343 29.5599 96.9843 29.5599C96.2343 29.5599 95.6643 29.97 95.2743 30.79C94.8943 31.61 94.6943 33.2299 94.6943 35.6699" fill="#58595B"/>
<path d="M36.6442 68.4801C36.7342 68.5201 36.7942 68.5901 36.8442 68.6801C36.8842 68.7701 36.8742 68.8601 36.8142 68.9501C36.6542 69.1001 36.5342 69.2101 36.4442 69.2801C36.0242 69.6801 35.6042 70.0701 35.1842 70.4601C34.7642 70.8501 34.3342 71.2301 33.8942 71.6001C33.1442 72.2401 32.3942 72.8601 31.6442 73.4701C30.8942 74.0801 30.1342 74.6801 29.3542 75.2801C28.4242 75.9901 27.4842 76.6801 26.5242 77.3701C25.5642 78.0601 24.5842 78.7101 23.5942 79.3201C22.5542 79.9601 21.5142 80.5701 20.4842 81.1401C19.4442 81.7101 18.3742 82.2401 17.2742 82.7301C16.2842 83.1501 15.2642 83.5101 14.2242 83.8201C13.1842 84.1301 12.1242 84.3401 11.0442 84.4501C10.4042 84.5201 9.75424 84.5101 9.10425 84.4301C8.45425 84.3501 7.84425 84.1501 7.26425 83.8201C6.29425 83.2501 5.66425 82.4301 5.37425 81.3701C5.19425 80.8201 5.11425 80.2501 5.11425 79.6601C5.11425 79.0701 5.14425 78.5001 5.21425 77.9201C5.32425 77.1901 5.47425 76.4701 5.67425 75.7701C5.87425 75.0701 6.09425 74.3601 6.33425 73.6501C6.64425 72.8601 6.97425 72.0701 7.32425 71.3001C7.67425 70.5301 8.05425 69.7701 8.45425 69.0201C8.56425 68.8201 8.68425 68.6201 8.80425 68.4201C8.92425 68.2201 9.04425 68.0101 9.15425 67.7901H8.45425C7.17425 67.7101 5.90425 67.4901 4.64425 67.1501C3.38425 66.8101 2.24425 66.2101 1.23425 65.3801C1.18425 65.3401 1.12425 65.2601 1.05425 65.1601C0.974245 65.0601 0.984245 64.9801 1.07425 64.9101C1.18425 64.8401 1.30425 64.8301 1.42425 64.8801C1.54425 64.9201 1.65425 64.9701 1.74425 65.0101C1.85425 65.1201 1.96425 65.2101 2.07425 65.2801C2.18425 65.3501 2.29425 65.4201 2.40425 65.5101C2.44425 65.5501 2.48425 65.5801 2.50425 65.5801C2.54425 65.6001 2.57425 65.6201 2.58425 65.6301C2.59425 65.6401 2.62425 65.6601 2.66425 65.6801C2.84425 65.7701 2.96425 65.8301 3.02425 65.8801C3.20425 65.9701 3.32425 66.0301 3.38425 66.0801C3.40425 66.0801 3.42425 66.0801 3.43425 66.1001C3.44425 66.1101 3.46425 66.1201 3.48425 66.1201L3.68425 66.2201L4.47425 66.5201C4.56425 66.5401 4.64425 66.5701 4.72425 66.5901C4.80425 66.6101 4.88425 66.6301 4.97425 66.6601H5.04425C5.04425 66.6601 5.05425 66.6901 5.07425 66.6901C5.11425 66.7101 5.15425 66.7201 5.19425 66.7201C5.23425 66.7201 5.26425 66.7301 5.31425 66.7501C5.46425 66.7901 5.61425 66.8301 5.76425 66.8501C5.90425 66.8701 6.06425 66.8901 6.24425 66.9201C6.57425 66.9901 6.89425 67.0401 7.20425 67.0701C7.51425 67.1001 7.82425 67.1301 8.13425 67.1501C8.37425 67.1501 8.61425 67.1501 8.86425 67.1701C9.10425 67.1801 9.35425 67.1701 9.59425 67.1501C9.88425 66.6901 10.1742 66.2301 10.4742 65.7801C10.7742 65.3301 11.0742 64.8801 11.3842 64.4401C11.9142 63.7101 12.4642 62.9901 13.0442 62.2901C13.6142 61.5801 14.2242 60.9001 14.8642 60.2401C15.4342 59.6201 16.0342 59.0401 16.6542 58.4801C17.2742 57.9301 17.9242 57.4001 18.6142 56.8901C19.1842 56.4501 19.7942 56.0501 20.4342 55.7001C21.0742 55.3501 21.7442 55.0501 22.4542 54.8101C23.0542 54.5901 23.6642 54.4301 24.3042 54.3501C24.9442 54.2601 25.5842 54.2701 26.2242 54.3801C26.5742 54.4501 26.9342 54.5401 27.3042 54.6601C27.6742 54.7801 27.9942 54.9601 28.2842 55.2101C28.9042 55.7601 29.1442 56.4601 29.0142 57.3001C28.9442 57.7601 28.8142 58.2101 28.6042 58.6401C28.3942 59.0701 28.1442 59.4701 27.8642 59.8501C27.4842 60.3801 27.0642 60.8801 26.5842 61.3401C26.1142 61.8001 25.6142 62.2501 25.1142 62.6601C23.9242 63.5901 22.6442 64.3901 21.2842 65.0601C19.9242 65.7301 18.5142 66.2901 17.0642 66.7301C15.9642 67.0401 14.8542 67.2901 13.7342 67.4801C12.6142 67.6701 11.4942 67.7801 10.3742 67.8301C9.55425 69.1801 8.81425 70.5601 8.15425 71.9701C7.84425 72.6801 7.53425 73.4301 7.22425 74.2201C7.15425 74.4001 7.09425 74.5801 7.04425 74.7701C6.98425 74.9601 6.92425 75.1501 6.86425 75.3501C6.82425 75.4401 6.79425 75.5201 6.78425 75.6001C6.77425 75.6801 6.74425 75.7601 6.70425 75.8501C6.68425 75.9601 6.66425 76.0501 6.63425 76.1301C6.61425 76.2101 6.59425 76.2801 6.56425 76.3501C6.41425 76.9701 6.28425 77.5901 6.18425 78.2201C6.08425 78.8501 6.04425 79.4801 6.06425 80.1201C6.06425 80.1901 6.06425 80.2601 6.08425 80.3401C6.09425 80.4201 6.10425 80.4901 6.10425 80.5601C6.12425 80.6001 6.13425 80.6701 6.13425 80.7601C6.13425 80.8001 6.14425 80.8301 6.16425 80.8301V80.8601C6.18425 80.9901 6.20425 81.1201 6.21425 81.2401C6.22425 81.3601 6.25425 81.4901 6.29425 81.6201C6.33425 81.7101 6.38425 81.8201 6.42425 81.9501C6.44425 81.9901 6.45425 82.0201 6.45425 82.0301C6.45425 82.0401 6.46425 82.0701 6.48425 82.1101C6.48425 82.1301 6.48425 82.1401 6.50425 82.1401C6.52425 82.1401 6.52425 82.1501 6.52425 82.1701C6.56425 82.2801 6.62425 82.3801 6.69425 82.4701C6.76425 82.5601 6.82425 82.6601 6.89425 82.7701L6.92425 82.8001C6.92425 82.8001 6.97425 82.8901 7.02425 82.9301L7.15425 83.0601L7.22425 83.0901C7.31425 83.1801 7.38425 83.2401 7.45425 83.2901C7.47425 83.2901 7.48425 83.2901 7.48425 83.3101C7.48425 83.3201 7.49425 83.3301 7.51425 83.3301C7.53425 83.3501 7.55425 83.3701 7.58425 83.3801C7.60425 83.3801 7.62425 83.4101 7.65425 83.4301C7.69425 83.4501 7.72425 83.4601 7.73425 83.4601C7.74425 83.4601 7.77425 83.4701 7.81425 83.4901C7.81425 83.5101 7.82425 83.5201 7.84425 83.5201C7.91425 83.5401 7.97425 83.5601 8.02425 83.5901C8.07425 83.6101 8.14425 83.6301 8.20425 83.6601H8.27425L8.30425 83.6901H8.33425C8.33425 83.6901 8.40425 83.6901 8.41425 83.7101C8.42425 83.7201 8.44425 83.7301 8.46425 83.7301C8.64425 83.7701 8.77425 83.8001 8.86425 83.8001C8.90425 83.8001 8.94425 83.8001 8.98425 83.8201C9.01425 83.8301 9.05424 83.8401 9.10425 83.8401H9.23425C9.30424 83.8601 9.37425 83.8701 9.45425 83.8701H9.67425C9.89425 83.8701 10.1142 83.8601 10.3242 83.8401C10.5342 83.8201 10.7342 83.8001 10.9342 83.7701C11.0042 83.7701 11.0442 83.7601 11.0642 83.7401H11.2642C11.3342 83.7201 11.3942 83.7101 11.4442 83.7101C11.4942 83.7101 11.5642 83.7001 11.6242 83.6801C11.7342 83.6601 11.8542 83.6401 11.9842 83.6101C12.1142 83.5901 12.2342 83.5701 12.3442 83.5401L13.8342 83.1401C14.9142 82.8101 15.9642 82.4101 16.9842 81.9501C18.0042 81.4901 19.0042 80.9801 19.9942 80.4301C21.0542 79.8601 22.0742 79.2501 23.0542 78.6201C24.0342 77.9901 25.0142 77.3301 25.9842 76.6501C27.7242 75.4101 29.4442 74.1001 31.1142 72.7101C31.7342 72.2001 32.3342 71.6901 32.9242 71.1901C33.5142 70.6801 34.0942 70.1701 34.6642 69.6701C35.1242 69.2701 35.5842 68.8501 36.0242 68.4101C36.0942 68.3401 36.1942 68.3401 36.3342 68.3901C36.4742 68.4501 36.5842 68.5001 36.6542 68.5401L36.6442 68.4801ZM8.30425 83.6801C8.37425 83.7001 8.38425 83.7101 8.33425 83.7101H8.30425V83.6801ZM13.7342 63.0401C13.2042 63.6801 12.6942 64.3501 12.2142 65.0401C11.7242 65.7401 11.2642 66.4401 10.8242 67.1401C11.0642 67.1201 11.3042 67.1001 11.5342 67.0701C11.7642 67.0501 12.0042 67.0201 12.2442 66.9701C13.6542 66.7901 15.0442 66.5001 16.4142 66.0801C17.7842 65.6601 19.1242 65.1301 20.4242 64.4901C21.7942 63.8301 23.0842 63.0201 24.2942 62.0701C24.8042 61.6701 25.2842 61.2501 25.7342 60.8001C26.1842 60.3501 26.6042 59.8701 26.9742 59.3601C27.1242 59.1401 27.2642 58.9201 27.3842 58.7101C27.5042 58.5001 27.6242 58.2901 27.7342 58.0601C27.8442 57.8401 27.9242 57.6501 27.9642 57.4801C28.0042 57.3101 28.0442 57.1301 28.0642 56.9301C28.0842 56.8201 28.0942 56.7301 28.0942 56.6501V56.3401L28.0642 56.3101V56.2101C28.0642 56.2101 28.0442 56.1001 27.9942 56.0101C27.9942 55.9701 27.9942 55.9401 27.9742 55.9301C27.9642 55.9201 27.9542 55.9001 27.9542 55.8801L27.9242 55.8501C27.9242 55.8501 27.8842 55.7801 27.8742 55.7701C27.8642 55.7601 27.8442 55.7301 27.8242 55.6901L27.7942 55.6201C27.7942 55.6201 27.7542 55.5901 27.7442 55.5901C27.7342 55.5901 27.7142 55.5801 27.6942 55.5601L27.5942 55.4601H27.5642C27.5642 55.4601 27.4842 55.3901 27.4642 55.3901C27.4442 55.3901 27.4342 55.3801 27.4342 55.3601H27.4042C27.4042 55.3601 27.3642 55.3301 27.3342 55.3301C27.1542 55.2901 27.0142 55.2401 26.9042 55.2001C26.8542 55.1801 26.8142 55.1701 26.7742 55.1701C26.7342 55.1701 26.6942 55.1701 26.6742 55.1501C26.6542 55.1401 26.6142 55.1301 26.5742 55.1301C26.3942 55.0901 26.2642 55.0601 26.1742 55.0601C26.1042 55.0601 26.0642 55.0501 26.0442 55.0301H25.3842C25.2042 55.0301 25.0642 55.0401 24.9542 55.0601C24.8442 55.0601 24.7642 55.0701 24.7242 55.0901H24.5942C24.2842 55.1301 23.9842 55.2001 23.6842 55.2901C23.3842 55.3801 23.0842 55.4801 22.7742 55.5901C22.6842 55.6301 22.6042 55.6701 22.5442 55.6901C22.4742 55.7101 22.4042 55.7401 22.3142 55.7901L22.1842 55.8601H22.1542L22.1242 55.8901C22.1242 55.8901 22.0442 55.9001 22.0242 55.9201C22.0042 55.9401 21.9642 55.9601 21.9242 55.9901C21.7442 56.0601 21.5842 56.1301 21.4442 56.2201C21.3042 56.3101 21.1542 56.4001 20.9942 56.4801C20.3142 56.8601 19.6542 57.2901 19.0442 57.7701C18.4242 58.2601 17.8342 58.7601 17.2542 59.2901C16.6142 59.8601 16.0042 60.4701 15.4342 61.1001C14.8642 61.7301 14.2942 62.3801 13.7442 63.0401H13.7342ZM27.8242 55.6201C27.8242 55.6201 27.8542 55.6301 27.8542 55.6501C27.8542 55.6301 27.8442 55.6201 27.8242 55.6201Z" fill="#58595B" stroke="#58595B" stroke-miterlimit="10"/>
<path d="M36.6442 68.4801C36.7342 68.5201 36.7942 68.5901 36.8442 68.6801C36.8842 68.7701 36.8742 68.8601 36.8142 68.9501C36.6542 69.1001 36.5342 69.2101 36.4442 69.2801C36.0242 69.6801 35.6042 70.0701 35.1842 70.4601C34.7642 70.8501 34.3342 71.2301 33.8942 71.6001C33.1442 72.2401 32.3942 72.8601 31.6442 73.4701C30.8942 74.0801 30.1342 74.6801 29.3542 75.2801C28.4242 75.9901 27.4842 76.6801 26.5242 77.3701C25.5642 78.0601 24.5842 78.7101 23.5942 79.3201C22.5542 79.9601 21.5142 80.5701 20.4842 81.1401C19.4442 81.7101 18.3742 82.2401 17.2742 82.7301C16.2842 83.1501 15.2642 83.5101 14.2242 83.8201C13.1842 84.1301 12.1242 84.3401 11.0442 84.4501C10.4042 84.5201 9.75424 84.5101 9.10425 84.4301C8.45425 84.3501 7.84425 84.1501 7.26425 83.8201C6.29425 83.2501 5.66425 82.4301 5.37425 81.3701C5.19425 80.8201 5.11425 80.2501 5.11425 79.6601C5.11425 79.0701 5.14425 78.5001 5.21425 77.9201C5.32425 77.1901 5.47425 76.4701 5.67425 75.7701C5.87425 75.0701 6.09425 74.3601 6.33425 73.6501C6.64425 72.8601 6.97425 72.0701 7.32425 71.3001C7.67425 70.5301 8.05425 69.7701 8.45425 69.0201C8.56425 68.8201 8.68425 68.6201 8.80425 68.4201C8.92425 68.2201 9.04425 68.0101 9.15425 67.7901H8.45425C7.17425 67.7101 5.90425 67.4901 4.64425 67.1501C3.38425 66.8101 2.24425 66.2101 1.23425 65.3801C1.18425 65.3401 1.12425 65.2601 1.05425 65.1601C0.974245 65.0601 0.984245 64.9801 1.07425 64.9101C1.18425 64.8401 1.30425 64.8301 1.42425 64.8801C1.54425 64.9201 1.65425 64.9701 1.74425 65.0101C1.85425 65.1201 1.96425 65.2101 2.07425 65.2801C2.18425 65.3501 2.29425 65.4201 2.40425 65.5101C2.44425 65.5501 2.48425 65.5801 2.50425 65.5801C2.54425 65.6001 2.57425 65.6201 2.58425 65.6301C2.59425 65.6401 2.62425 65.6601 2.66425 65.6801C2.84425 65.7701 2.96425 65.8301 3.02425 65.8801C3.20425 65.9701 3.32425 66.0301 3.38425 66.0801C3.40425 66.0801 3.42425 66.0801 3.43425 66.1001C3.44425 66.1101 3.46425 66.1201 3.48425 66.1201L3.68425 66.2201L4.47425 66.5201C4.56425 66.5401 4.64425 66.5701 4.72425 66.5901C4.80425 66.6101 4.88425 66.6301 4.97425 66.6601H5.04425C5.04425 66.6601 5.05425 66.6901 5.07425 66.6901C5.11425 66.7101 5.15425 66.7201 5.19425 66.7201C5.23425 66.7201 5.26425 66.7301 5.31425 66.7501C5.46425 66.7901 5.61425 66.8301 5.76425 66.8501C5.90425 66.8701 6.06425 66.8901 6.24425 66.9201C6.57425 66.9901 6.89425 67.0401 7.20425 67.0701C7.51425 67.1001 7.82425 67.1301 8.13425 67.1501C8.37425 67.1501 8.61425 67.1501 8.86425 67.1701C9.10425 67.1801 9.35425 67.1701 9.59425 67.1501C9.88425 66.6901 10.1742 66.2301 10.4742 65.7801C10.7742 65.3301 11.0742 64.8801 11.3842 64.4401C11.9142 63.7101 12.4642 62.9901 13.0442 62.2901C13.6142 61.5801 14.2242 60.9001 14.8642 60.2401C15.4342 59.6201 16.0342 59.0401 16.6542 58.4801C17.2742 57.9301 17.9242 57.4001 18.6142 56.8901C19.1842 56.4501 19.7942 56.0501 20.4342 55.7001C21.0742 55.3501 21.7442 55.0501 22.4542 54.8101C23.0542 54.5901 23.6642 54.4301 24.3042 54.3501C24.9442 54.2601 25.5842 54.2701 26.2242 54.3801C26.5742 54.4501 26.9342 54.5401 27.3042 54.6601C27.6742 54.7801 27.9942 54.9601 28.2842 55.2101C28.9042 55.7601 29.1442 56.4601 29.0142 57.3001C28.9442 57.7601 28.8142 58.2101 28.6042 58.6401C28.3942 59.0701 28.1442 59.4701 27.8642 59.8501C27.4842 60.3801 27.0642 60.8801 26.5842 61.3401C26.1142 61.8001 25.6142 62.2501 25.1142 62.6601C23.9242 63.5901 22.6442 64.3901 21.2842 65.0601C19.9242 65.7301 18.5142 66.2901 17.0642 66.7301C15.9642 67.0401 14.8542 67.2901 13.7342 67.4801C12.6142 67.6701 11.4942 67.7801 10.3742 67.8301C9.55425 69.1801 8.81425 70.5601 8.15425 71.9701C7.84425 72.6801 7.53425 73.4301 7.22425 74.2201C7.15425 74.4001 7.09425 74.5801 7.04425 74.7701C6.98425 74.9601 6.92425 75.1501 6.86425 75.3501C6.82425 75.4401 6.79425 75.5201 6.78425 75.6001C6.77425 75.6801 6.74425 75.7601 6.70425 75.8501C6.68425 75.9601 6.66425 76.0501 6.63425 76.1301C6.61425 76.2101 6.59425 76.2801 6.56425 76.3501C6.41425 76.9701 6.28425 77.5901 6.18425 78.2201C6.08425 78.8501 6.04425 79.4801 6.06425 80.1201C6.06425 80.1901 6.06425 80.2601 6.08425 80.3401C6.09425 80.4201 6.10425 80.4901 6.10425 80.5601C6.12425 80.6001 6.13425 80.6701 6.13425 80.7601C6.13425 80.8001 6.14425 80.8301 6.16425 80.8301V80.8601C6.18425 80.9901 6.20425 81.1201 6.21425 81.2401C6.22425 81.3601 6.25425 81.4901 6.29425 81.6201C6.33425 81.7101 6.38425 81.8201 6.42425 81.9501C6.44425 81.9901 6.45425 82.0201 6.45425 82.0301C6.45425 82.0401 6.46425 82.0701 6.48425 82.1101C6.48425 82.1301 6.48425 82.1401 6.50425 82.1401C6.52425 82.1401 6.52425 82.1501 6.52425 82.1701C6.56425 82.2801 6.62425 82.3801 6.69425 82.4701C6.76425 82.5601 6.82425 82.6601 6.89425 82.7701L6.92425 82.8001C6.92425 82.8001 6.97425 82.8901 7.02425 82.9301L7.15425 83.0601L7.22425 83.0901C7.31425 83.1801 7.38425 83.2401 7.45425 83.2901C7.47425 83.2901 7.48425 83.2901 7.48425 83.3101C7.48425 83.3201 7.49425 83.3301 7.51425 83.3301C7.53425 83.3501 7.55425 83.3701 7.58425 83.3801C7.60425 83.3801 7.62425 83.4101 7.65425 83.4301C7.69425 83.4501 7.72425 83.4601 7.73425 83.4601C7.74425 83.4601 7.77425 83.4701 7.81425 83.4901C7.81425 83.5101 7.82425 83.5201 7.84425 83.5201C7.91425 83.5401 7.97425 83.5601 8.02425 83.5901C8.07425 83.6101 8.14425 83.6301 8.20425 83.6601H8.27425L8.30425 83.6901H8.33425C8.33425 83.6901 8.40425 83.6901 8.41425 83.7101C8.42425 83.7201 8.44425 83.7301 8.46425 83.7301C8.64425 83.7701 8.77425 83.8001 8.86425 83.8001C8.90425 83.8001 8.94425 83.8001 8.98425 83.8201C9.01425 83.8301 9.05424 83.8401 9.10425 83.8401H9.23425C9.30424 83.8601 9.37425 83.8701 9.45425 83.8701H9.67425C9.89425 83.8701 10.1142 83.8601 10.3242 83.8401C10.5342 83.8201 10.7342 83.8001 10.9342 83.7701C11.0042 83.7701 11.0442 83.7601 11.0642 83.7401H11.2642C11.3342 83.7201 11.3942 83.7101 11.4442 83.7101C11.4942 83.7101 11.5642 83.7001 11.6242 83.6801C11.7342 83.6601 11.8542 83.6401 11.9842 83.6101C12.1142 83.5901 12.2342 83.5701 12.3442 83.5401L13.8342 83.1401C14.9142 82.8101 15.9642 82.4101 16.9842 81.9501C18.0042 81.4901 19.0042 80.9801 19.9942 80.4301C21.0542 79.8601 22.0742 79.2501 23.0542 78.6201C24.0342 77.9901 25.0142 77.3301 25.9842 76.6501C27.7242 75.4101 29.4442 74.1001 31.1142 72.7101C31.7342 72.2001 32.3342 71.6901 32.9242 71.1901C33.5142 70.6801 34.0942 70.1701 34.6642 69.6701C35.1242 69.2701 35.5842 68.8501 36.0242 68.4101C36.0942 68.3401 36.1942 68.3401 36.3342 68.3901C36.4742 68.4501 36.5842 68.5001 36.6542 68.5401L36.6442 68.4801ZM8.29425 83.6201C8.36425 83.6401 8.37425 83.6501 8.32425 83.6501H8.29425V83.6201ZM13.7242 62.9801C13.1942 63.6201 12.6842 64.2901 12.2042 64.9801C11.7142 65.6801 11.2542 66.3801 10.8142 67.0801C11.0542 67.0601 11.2942 67.0401 11.5242 67.0101C11.7542 66.9901 11.9942 66.9601 12.2342 66.9101C13.6442 66.7301 15.0342 66.4401 16.4042 66.0201C17.7742 65.6001 19.1142 65.0701 20.4142 64.4301C21.7842 63.7701 23.0742 62.9601 24.2842 62.0101C24.7942 61.6101 25.2742 61.1901 25.7242 60.7401C26.1742 60.2901 26.5942 59.8101 26.9642 59.3001C27.1142 59.0801 27.2542 58.8601 27.3742 58.6501C27.4942 58.4401 27.6142 58.2301 27.7242 58.0001C27.8342 57.7801 27.9142 57.5901 27.9542 57.4201C27.9942 57.2501 28.0342 57.0701 28.0542 56.8701C28.0742 56.7601 28.0842 56.6701 28.0842 56.5901V56.2801L28.0542 56.2501V56.1501C28.0542 56.1501 28.0342 56.0401 27.9842 55.9501C27.9842 55.9101 27.9842 55.8801 27.9642 55.8701C27.9542 55.8601 27.9442 55.8401 27.9442 55.8201L27.9142 55.7901C27.9142 55.7901 27.8742 55.7201 27.8642 55.7101C27.8542 55.7001 27.8342 55.6701 27.8142 55.6301L27.7842 55.5601C27.7842 55.5601 27.7442 55.5301 27.7342 55.5301C27.7242 55.5301 27.7042 55.5201 27.6842 55.5001L27.5842 55.4001H27.5542C27.5542 55.4001 27.4742 55.3301 27.4542 55.3301C27.4342 55.3301 27.4242 55.3201 27.4242 55.3001H27.3942C27.3942 55.3001 27.3542 55.2701 27.3242 55.2701C27.1442 55.2301 27.0042 55.1801 26.8942 55.1401C26.8442 55.1201 26.8042 55.1101 26.7642 55.1101C26.7242 55.1101 26.6842 55.1101 26.6642 55.0901C26.6442 55.0801 26.6042 55.0701 26.5642 55.0701C26.3842 55.0301 26.2542 55.0001 26.1642 55.0001C26.0942 55.0001 26.0542 54.9901 26.0342 54.9701H25.3742C25.1942 54.9701 25.0542 54.9801 24.9442 55.0001C24.8342 55.0001 24.7542 55.0101 24.7142 55.0301H24.5842C24.2742 55.0701 23.9742 55.1401 23.6742 55.2301C23.3742 55.3201 23.0742 55.4201 22.7642 55.5301C22.6742 55.5701 22.5942 55.6101 22.5342 55.6301C22.4642 55.6501 22.3942 55.6801 22.3042 55.7301L22.1742 55.8001H22.1442L22.1142 55.8301C22.1142 55.8301 22.0342 55.8401 22.0142 55.8601C21.9942 55.8801 21.9542 55.9001 21.9142 55.9301C21.7342 56.0001 21.5742 56.0701 21.4342 56.1601C21.2942 56.2501 21.1442 56.3401 20.9842 56.4201C20.3042 56.8001 19.6442 57.2301 19.0342 57.7101C18.4142 58.2001 17.8242 58.7001 17.2442 59.2301C16.6042 59.8001 15.9942 60.4101 15.4242 61.0401C14.8542 61.6701 14.2842 62.3201 13.7342 62.9801H13.7242ZM27.8042 55.5601C27.8042 55.5601 27.8342 55.5701 27.8342 55.5901C27.8342 55.5701 27.8242 55.5601 27.8042 55.5601Z" fill="#58595B" stroke="#58595B" stroke-width="0.62" stroke-miterlimit="10"/>
<path d="M53.2043 68.4201C53.2743 68.4601 53.3443 68.5401 53.4243 68.6501C53.5043 68.7601 53.4843 68.8401 53.3743 68.8801C53.3543 68.8801 53.3443 68.8901 53.3443 68.9101C53.2343 68.9801 53.1143 69.0401 52.9943 69.0901C52.8743 69.1501 52.7543 69.2101 52.6443 69.2701C52.4243 69.3801 52.2043 69.5001 51.9843 69.6301C51.7643 69.7601 51.5343 69.8801 51.2843 69.9901C50.6643 70.3001 50.0443 70.5901 49.4143 70.8501C48.7843 71.1201 48.1343 71.3601 47.4743 71.5801C46.8543 71.8001 46.2143 71.9701 45.5543 72.0801C45.2443 72.1201 44.9343 72.1501 44.6143 72.1601C44.2943 72.1701 43.9843 72.1201 43.6743 72.0101C43.4043 71.9001 43.1743 71.7501 42.9643 71.5501C42.7543 71.3501 42.6143 71.1101 42.5543 70.8201C42.4843 70.6401 42.4643 70.4601 42.4743 70.2601C42.4843 70.0601 42.5143 69.8601 42.5543 69.6601C42.4643 69.7301 42.3543 69.8301 42.2243 69.9601C41.6943 70.4001 41.1543 70.8301 40.6143 71.2401C40.0743 71.6501 39.4943 72.0101 38.8743 72.3201C38.3643 72.6301 37.8143 72.8201 37.2143 72.8801C36.8843 72.9201 36.5543 72.9001 36.2343 72.8001C35.9143 72.7001 35.6343 72.5401 35.3843 72.3201C35.1843 72.1201 35.0643 71.9001 35.0043 71.6601C34.9543 71.4201 34.9343 71.1601 34.9743 70.9001C35.0043 70.6301 35.0643 70.3801 35.1543 70.1201C35.2443 69.8701 35.3443 69.6401 35.4543 69.4401C35.7443 68.8201 36.1143 68.2101 36.5843 67.6201C36.6543 67.5101 36.7343 67.4701 36.8443 67.4901C36.9543 67.5101 37.0543 67.5501 37.1443 67.5901C37.2143 67.6301 37.2943 67.7101 37.3943 67.8101C37.4943 67.9101 37.5143 68.0001 37.4443 68.0901V68.1601C37.3543 68.2701 37.2643 68.3901 37.1843 68.5101C37.0943 68.6301 37.0143 68.7501 36.9543 68.8601C36.6643 69.3201 36.4343 69.7701 36.2543 70.1901C36.1243 70.4301 36.0243 70.6801 35.9543 70.9201V71.0501C35.9543 71.0501 35.9243 71.0901 35.9243 71.1201C35.9243 71.1501 35.9143 71.1801 35.8943 71.2201V71.7801C35.8943 71.8501 35.9043 71.8901 35.9243 71.9101C35.9243 71.9301 35.9243 71.9501 35.9443 71.9601C35.9543 71.9701 35.9643 71.9901 35.9643 72.0101C35.9643 72.0101 35.9743 72.0601 35.9943 72.0801H36.0243V72.1501H36.0543C36.0543 72.1501 36.0943 72.1501 36.1043 72.1701C36.1143 72.1801 36.1443 72.1901 36.1843 72.1901L36.2143 72.2201H36.8743C36.9443 72.2001 37.0043 72.1801 37.0543 72.1701C37.1043 72.1601 37.1743 72.1401 37.2343 72.1201C37.3043 72.1001 37.3643 72.0801 37.4143 72.0501C37.4743 72.0301 37.5343 72.0101 37.5943 71.9801L37.7943 71.8801L37.8643 71.8501C37.8643 71.8501 37.9343 71.8401 37.9343 71.8201C38.0843 71.7501 38.2343 71.6801 38.3643 71.6001C38.4943 71.5201 38.6343 71.4401 38.7643 71.3501C39.3143 71.0201 39.8443 70.6501 40.3543 70.2601C40.8643 69.8601 41.3543 69.4401 41.8443 69.0001C42.3343 68.5801 42.8143 68.1301 43.3043 67.6401C43.3743 67.5701 43.4743 67.5601 43.6043 67.6101C43.7343 67.6501 43.8343 67.7001 43.9043 67.7401C43.9743 67.7801 44.0343 67.8401 44.1043 67.9201C44.1743 68.0001 44.1843 68.0801 44.1343 68.1701C44.0243 68.3901 43.9343 68.6001 43.8643 68.8001C43.8243 68.9101 43.7843 69.0201 43.7443 69.1101C43.7143 69.2101 43.6743 69.3101 43.6343 69.4201C43.5843 69.5301 43.5543 69.6301 43.5343 69.7201C43.5143 69.8101 43.4743 69.9301 43.4343 70.0901C43.4143 70.2001 43.4043 70.3101 43.4043 70.4201V70.9801C43.4043 70.9801 43.4443 71.0701 43.4543 71.1101C43.4643 71.1501 43.4843 71.2001 43.5043 71.2401C43.5243 71.2601 43.5343 71.2801 43.5343 71.3101L43.5643 71.3401L43.5943 71.3701L43.5643 71.3401C43.5643 71.3401 43.5943 71.3501 43.5943 71.3701C43.6143 71.3701 43.6243 71.3801 43.6243 71.4001H43.6943C43.6943 71.4001 43.7143 71.4301 43.7643 71.4301C43.8043 71.4501 43.8643 71.4601 43.9343 71.4601L44.0043 71.4901H44.0743C44.2543 71.4901 44.3843 71.4801 44.4743 71.4601H44.6743C44.6743 71.4601 44.7143 71.4601 44.7243 71.4401C44.7343 71.4401 44.7543 71.4201 44.7743 71.4201H44.8443C45.0043 71.4001 45.1443 71.3801 45.2743 71.3501C45.4043 71.3301 45.5543 71.2901 45.7043 71.2501C46.0143 71.1801 46.3243 71.1001 46.6443 70.9801C46.9643 70.8701 47.2743 70.7601 47.5843 70.6501C48.4443 70.3401 49.2943 69.9801 50.1343 69.5701C50.9743 69.1601 51.7943 68.7201 52.5843 68.2601C52.6943 68.1901 52.8043 68.1801 52.9143 68.2301C53.0243 68.2701 53.1243 68.3301 53.2143 68.4001L53.2043 68.4201ZM36.0943 72.1101C36.0943 72.1101 36.1543 72.1701 36.1243 72.1401C36.1043 72.1201 36.0843 72.1101 36.0543 72.1101H36.0843H36.0943Z" fill="#58595B" stroke="#58595B" stroke-miterlimit="10"/>
<path d="M53.2043 68.4201C53.2743 68.4601 53.3443 68.5401 53.4243 68.6501C53.5043 68.7601 53.4843 68.8401 53.3743 68.8801C53.3543 68.8801 53.3443 68.8901 53.3443 68.9101C53.2343 68.9801 53.1143 69.0401 52.9943 69.0901C52.8743 69.1501 52.7543 69.2101 52.6443 69.2701C52.4243 69.3801 52.2043 69.5001 51.9843 69.6301C51.7643 69.7601 51.5343 69.8801 51.2843 69.9901C50.6643 70.3001 50.0443 70.5901 49.4143 70.8501C48.7843 71.1201 48.1343 71.3601 47.4743 71.5801C46.8543 71.8001 46.2143 71.9701 45.5543 72.0801C45.2443 72.1201 44.9343 72.1501 44.6143 72.1601C44.2943 72.1701 43.9843 72.1201 43.6743 72.0101C43.4043 71.9001 43.1743 71.7501 42.9643 71.5501C42.7543 71.3501 42.6143 71.1101 42.5543 70.8201C42.4843 70.6401 42.4643 70.4601 42.4743 70.2601C42.4843 70.0601 42.5143 69.8601 42.5543 69.6601C42.4643 69.7301 42.3543 69.8301 42.2243 69.9601C41.6943 70.4001 41.1543 70.8301 40.6143 71.2401C40.0743 71.6501 39.4943 72.0101 38.8743 72.3201C38.3643 72.6301 37.8143 72.8201 37.2143 72.8801C36.8843 72.9201 36.5543 72.9001 36.2343 72.8001C35.9143 72.7001 35.6343 72.5401 35.3843 72.3201C35.1843 72.1201 35.0643 71.9001 35.0043 71.6601C34.9543 71.4201 34.9343 71.1601 34.9743 70.9001C35.0043 70.6301 35.0643 70.3801 35.1543 70.1201C35.2443 69.8701 35.3443 69.6401 35.4543 69.4401C35.7443 68.8201 36.1143 68.2101 36.5843 67.6201C36.6543 67.5101 36.7343 67.4701 36.8443 67.4901C36.9543 67.5101 37.0543 67.5501 37.1443 67.5901C37.2143 67.6301 37.2943 67.7101 37.3943 67.8101C37.4943 67.9101 37.5143 68.0001 37.4443 68.0901V68.1601C37.3543 68.2701 37.2643 68.3901 37.1843 68.5101C37.0943 68.6301 37.0143 68.7501 36.9543 68.8601C36.6643 69.3201 36.4343 69.7701 36.2543 70.1901C36.1243 70.4301 36.0243 70.6801 35.9543 70.9201V71.0501C35.9543 71.0501 35.9243 71.0901 35.9243 71.1201C35.9243 71.1501 35.9143 71.1801 35.8943 71.2201V71.7801C35.8943 71.8501 35.9043 71.8901 35.9243 71.9101C35.9243 71.9301 35.9243 71.9501 35.9443 71.9601C35.9543 71.9701 35.9643 71.9901 35.9643 72.0101C35.9643 72.0101 35.9743 72.0601 35.9943 72.0801H36.0243V72.1501H36.0543C36.0543 72.1501 36.0943 72.1501 36.1043 72.1701C36.1143 72.1801 36.1443 72.1901 36.1843 72.1901L36.2143 72.2201H36.8743C36.9443 72.2001 37.0043 72.1801 37.0543 72.1701C37.1043 72.1601 37.1743 72.1401 37.2343 72.1201C37.3043 72.1001 37.3643 72.0801 37.4143 72.0501C37.4743 72.0301 37.5343 72.0101 37.5943 71.9801L37.7943 71.8801L37.8643 71.8501C37.8643 71.8501 37.9343 71.8401 37.9343 71.8201C38.0843 71.7501 38.2343 71.6801 38.3643 71.6001C38.4943 71.5201 38.6343 71.4401 38.7643 71.3501C39.3143 71.0201 39.8443 70.6501 40.3543 70.2601C40.8643 69.8601 41.3543 69.4401 41.8443 69.0001C42.3343 68.5801 42.8143 68.1301 43.3043 67.6401C43.3743 67.5701 43.4743 67.5601 43.6043 67.6101C43.7343 67.6501 43.8343 67.7001 43.9043 67.7401C43.9743 67.7801 44.0343 67.8401 44.1043 67.9201C44.1743 68.0001 44.1843 68.0801 44.1343 68.1701C44.0243 68.3901 43.9343 68.6001 43.8643 68.8001C43.8243 68.9101 43.7843 69.0201 43.7443 69.1101C43.7143 69.2101 43.6743 69.3101 43.6343 69.4201C43.5843 69.5301 43.5543 69.6301 43.5343 69.7201C43.5143 69.8101 43.4743 69.9301 43.4343 70.0901C43.4143 70.2001 43.4043 70.3101 43.4043 70.4201V70.9801C43.4043 70.9801 43.4443 71.0701 43.4543 71.1101C43.4643 71.1501 43.4843 71.2001 43.5043 71.2401C43.5243 71.2601 43.5343 71.2801 43.5343 71.3101L43.5643 71.3401L43.5943 71.3701L43.5643 71.3401C43.5643 71.3401 43.5943 71.3501 43.5943 71.3701C43.6143 71.3701 43.6243 71.3801 43.6243 71.4001H43.6943C43.6943 71.4001 43.7143 71.4301 43.7643 71.4301C43.8043 71.4501 43.8643 71.4601 43.9343 71.4601L44.0043 71.4901H44.0743C44.2543 71.4901 44.3843 71.4801 44.4743 71.4601H44.6743C44.6743 71.4601 44.7143 71.4601 44.7243 71.4401C44.7343 71.4401 44.7543 71.4201 44.7743 71.4201H44.8443C45.0043 71.4001 45.1443 71.3801 45.2743 71.3501C45.4043 71.3301 45.5543 71.2901 45.7043 71.2501C46.0143 71.1801 46.3243 71.1001 46.6443 70.9801C46.9643 70.8701 47.2743 70.7601 47.5843 70.6501C48.4443 70.3401 49.2943 69.9801 50.1343 69.5701C50.9743 69.1601 51.7943 68.7201 52.5843 68.2601C52.6943 68.1901 52.8043 68.1801 52.9143 68.2301C53.0243 68.2701 53.1243 68.3301 53.2143 68.4001L53.2043 68.4201ZM36.0843 72.1301C36.0843 72.1301 36.1443 72.1901 36.1143 72.1601C36.0943 72.1401 36.0743 72.1301 36.0443 72.1301H36.0743H36.0843Z" fill="#58595B" stroke="#58595B" stroke-width="0.62" stroke-miterlimit="10"/>
<path d="M66.2143 68.3501C66.2843 68.2801 66.3843 68.2701 66.5143 68.3001C66.6443 68.3301 66.7643 68.3801 66.8643 68.4501C66.9643 68.5201 67.0343 68.6001 67.0843 68.7001C67.1243 68.8001 67.1043 68.8801 67.0143 68.9501L66.6143 69.2501C65.7743 69.8901 64.8743 70.5101 63.8943 71.1001C63.1843 71.5201 62.4743 71.9101 61.7443 72.2601C61.0143 72.6101 60.2643 72.9101 59.4943 73.1501C58.7443 73.3901 57.9143 73.5701 57.0143 73.6801C56.7043 73.7201 56.4043 73.7501 56.1043 73.7501C55.8043 73.7501 55.5043 73.7201 55.1943 73.6501C54.7543 73.5601 54.3443 73.4101 53.9643 73.1901C53.5843 72.9701 53.2743 72.6701 53.0343 72.3001C52.7943 71.9701 52.6143 71.6001 52.5043 71.2101C52.3943 70.8101 52.3143 70.4101 52.2743 70.0201C52.2343 69.5601 52.2343 69.0901 52.2743 68.6101C52.3143 68.1401 52.3943 67.6701 52.5043 67.2001C52.7243 66.1401 53.0743 65.0901 53.5643 64.0501C53.8043 63.5201 54.0743 63.0001 54.3543 62.4901C54.6443 61.9801 54.9643 61.5001 55.3143 61.0301C55.9943 60.1001 56.7743 59.2701 57.6343 58.5501C58.0743 58.2001 58.5243 57.8801 58.9943 57.6101C59.4543 57.3301 59.9443 57.1101 60.4543 56.9301C61.4443 56.6001 62.4543 56.5001 63.4643 56.6301C63.8143 56.6801 64.1643 56.7601 64.4943 56.8801C64.8243 57.0001 65.0943 57.2101 65.2843 57.4901C65.4343 57.7101 65.5143 57.9401 65.5043 58.1901C65.4943 58.4301 65.4343 58.6601 65.3243 58.8801C65.1943 59.1901 65.0243 59.4701 64.8243 59.7301C64.6243 59.9801 64.4243 60.2301 64.2243 60.4801C63.6543 61.1201 63.0143 61.7401 62.3043 62.3401C61.9243 62.6701 61.5543 63.0001 61.1743 63.3201C60.7943 63.6401 60.4243 63.9601 60.0443 64.2601L57.6643 66.0501C57.3143 66.2901 56.9643 66.5401 56.6243 66.8001C56.2843 67.0501 55.9243 67.3001 55.5443 67.5501C55.3043 67.7301 55.0543 67.9001 54.7943 68.0801C54.5443 68.2601 54.2943 68.4301 54.0543 68.6101C53.9443 68.6501 53.8443 68.7101 53.7543 68.7801C53.6643 68.8501 53.5643 68.9101 53.4543 68.9801C53.3643 69.0201 53.2743 69.0401 53.1943 69.0101C53.1743 69.4101 53.1743 69.7901 53.1943 70.1701V70.4701C53.1943 70.4701 53.2243 70.5701 53.2243 70.6401V70.7401C53.2443 70.8301 53.2643 70.9201 53.2943 71.0101C53.3143 71.1001 53.3343 71.2001 53.3643 71.3101C53.4043 71.4001 53.4443 71.4801 53.4643 71.5601C53.4843 71.6401 53.5243 71.7301 53.5643 71.8401V71.8701C53.6343 71.9401 53.6543 71.9701 53.6343 71.9701C53.6543 72.0101 53.6743 72.0501 53.7043 72.0901C53.7243 72.1201 53.7443 72.1601 53.7743 72.2101C53.8143 72.2601 53.8443 72.2901 53.8443 72.3101C53.8643 72.3301 53.8743 72.3501 53.8743 72.3801C53.9143 72.4001 53.9443 72.4201 53.9543 72.4501C53.9643 72.4701 53.9943 72.5001 54.0343 72.5501L54.1043 72.6201C54.1043 72.6201 54.1343 72.6301 54.1343 72.6501C54.1743 72.6701 54.2343 72.7201 54.3043 72.7801H54.3343C54.3343 72.7801 54.3543 72.8101 54.3343 72.8101C54.3543 72.8101 54.3743 72.8101 54.3843 72.8301C54.3943 72.8401 54.4143 72.8501 54.4343 72.8501C54.4543 72.8701 54.4743 72.8801 54.5043 72.8801C54.5243 72.8801 54.5443 72.8901 54.5743 72.9101C54.6443 72.9301 54.7143 72.9701 54.8043 73.0101H54.8743C54.8743 73.0101 54.9443 73.0101 54.9543 73.0301C54.9543 73.0401 54.9843 73.0501 55.0043 73.0501C55.0443 73.0501 55.0943 73.0501 55.1543 73.0701C55.2143 73.0801 55.2543 73.0901 55.3043 73.0901H55.3743C55.3743 73.0901 55.4443 73.0901 55.4543 73.1101C55.4643 73.1201 55.4943 73.1301 55.5343 73.1301C55.7143 73.1301 55.8943 73.1301 56.0843 73.1101C56.2743 73.1001 56.4543 73.0801 56.6343 73.0601C57.4243 72.9501 58.2143 72.7701 58.9843 72.5101C59.7543 72.2601 60.4943 71.9501 61.2043 71.6001C61.8443 71.2901 62.4543 70.9601 63.0443 70.6101C63.6343 70.2601 64.2043 69.8801 64.7843 69.4801C65.2743 69.1701 65.7543 68.8201 66.2443 68.4201L66.2143 68.3501ZM53.9243 65.9701C53.7043 66.6101 53.5243 67.2701 53.3943 67.9601C53.4843 67.9201 53.5643 67.8701 53.6443 67.8101C53.7243 67.7601 53.8043 67.6901 53.8943 67.6301C54.2043 67.4301 54.5043 67.2301 54.7843 67.0301C55.0743 66.8301 55.3543 66.6201 55.6443 66.4001C56.4343 65.8501 57.1743 65.3101 57.8643 64.7801C58.2643 64.4901 58.6543 64.2001 59.0443 63.9001C59.4343 63.6001 59.8143 63.3001 60.1843 62.9901C60.5643 62.6801 60.9243 62.3701 61.2743 62.0601C61.6243 61.7501 61.9743 61.4401 62.3043 61.1301L63.1943 60.2401L63.2943 60.1401C63.2943 60.1401 63.2943 60.1101 63.3143 60.1101C63.3343 60.1101 63.3343 60.1001 63.3343 60.0801H63.3643C63.3843 60.0101 63.4443 59.9401 63.5343 59.8501C63.5743 59.7801 63.6343 59.7201 63.6943 59.6501C63.7643 59.5801 63.8143 59.5201 63.8643 59.4501C63.9543 59.3401 64.0443 59.2201 64.1343 59.0901C64.2243 58.9601 64.2943 58.8201 64.3643 58.6901C64.3843 58.6501 64.4043 58.5901 64.4343 58.5201C64.4543 58.4501 64.4743 58.4001 64.5043 58.3601C64.5243 58.3201 64.5343 58.2801 64.5343 58.2601C64.5343 58.2401 64.5443 58.2201 64.5643 58.1901V58.1601C64.5643 58.1601 64.5743 58.0901 64.5943 58.0901V57.7601C64.5943 57.7601 64.5243 57.6701 64.5243 57.6301V57.6001C64.5243 57.6001 64.4943 57.5901 64.4943 57.5701H64.4643L64.4343 57.5401H64.4043C64.4043 57.5401 64.3943 57.5101 64.3743 57.5101C64.3343 57.4901 64.3043 57.4801 64.2943 57.4801C64.2843 57.4801 64.2543 57.4701 64.2143 57.4501H64.0843C64.0843 57.4501 64.0043 57.4201 63.9643 57.4201C63.9243 57.4201 63.8943 57.4101 63.8443 57.3901H63.6743C63.6743 57.3901 63.5843 57.3901 63.5243 57.3701C63.4643 57.3501 63.4143 57.3501 63.3743 57.3501H62.9943C62.8743 57.3501 62.7543 57.3601 62.6443 57.3801H62.4443C62.4443 57.3801 62.4043 57.3801 62.3943 57.4001C62.3843 57.4101 62.3643 57.4201 62.3443 57.4201C62.2543 57.4201 62.1243 57.4401 61.9443 57.4901C61.6843 57.5301 61.4343 57.6001 61.2143 57.6901C61.1043 57.7401 60.9843 57.7801 60.8643 57.8201C60.7443 57.8601 60.6243 57.9101 60.5143 57.9501C60.4943 57.9501 60.4743 57.9601 60.4443 57.9801C60.4043 57.9801 60.3743 57.9901 60.3743 58.0101C60.3043 58.0101 60.2543 58.0301 60.2043 58.0801C60.1643 58.1201 60.1043 58.1601 60.0343 58.1801C59.9643 58.2001 59.9143 58.2401 59.8743 58.2801C59.3843 58.5201 58.9443 58.8201 58.5343 59.1701C58.1243 59.5201 57.7343 59.8901 57.3543 60.2601C56.9743 60.6601 56.6243 61.0801 56.2943 61.5301C55.9643 61.9801 55.6443 62.4501 55.3343 62.9401C55.0443 63.4301 54.7843 63.9201 54.5543 64.4301C54.3243 64.9401 54.1043 65.4601 53.9043 65.9901L53.9243 65.9701ZM54.3343 72.8501C54.3343 72.8501 54.3243 72.8201 54.3043 72.8201C54.3243 72.8201 54.3343 72.8301 54.3343 72.8501ZM54.8343 73.0501H54.8043C54.8043 73.0501 54.8743 73.0201 54.8843 73.0301C54.8943 73.0401 54.8843 73.0501 54.8643 73.0501H54.8343ZM64.5043 57.6501C64.5043 57.6501 64.5143 57.6901 64.5343 57.7201C64.5543 57.7401 64.5543 57.7301 64.5343 57.6901L64.5043 57.6601V57.6501Z" fill="#58595B" stroke="#58595B" stroke-miterlimit="10"/>
<path d="M66.2143 68.3501C66.2843 68.2801 66.3843 68.2701 66.5143 68.3001C66.6443 68.3301 66.7643 68.3801 66.8643 68.4501C66.9643 68.5201 67.0343 68.6001 67.0843 68.7001C67.1243 68.8001 67.1043 68.8801 67.0143 68.9501L66.6143 69.2501C65.7743 69.8901 64.8743 70.5101 63.8943 71.1001C63.1843 71.5201 62.4743 71.9101 61.7443 72.2601C61.0143 72.6101 60.2643 72.9101 59.4943 73.1501C58.7443 73.3901 57.9143 73.5701 57.0143 73.6801C56.7043 73.7201 56.4043 73.7501 56.1043 73.7501C55.8043 73.7501 55.5043 73.7201 55.1943 73.6501C54.7543 73.5601 54.3443 73.4101 53.9643 73.1901C53.5843 72.9701 53.2743 72.6701 53.0343 72.3001C52.7943 71.9701 52.6143 71.6001 52.5043 71.2101C52.3943 70.8101 52.3143 70.4101 52.2743 70.0201C52.2343 69.5601 52.2343 69.0901 52.2743 68.6101C52.3143 68.1401 52.3943 67.6701 52.5043 67.2001C52.7243 66.1401 53.0743 65.0901 53.5643 64.0501C53.8043 63.5201 54.0743 63.0001 54.3543 62.4901C54.6443 61.9801 54.9643 61.5001 55.3143 61.0301C55.9943 60.1001 56.7743 59.2701 57.6343 58.5501C58.0743 58.2001 58.5243 57.8801 58.9943 57.6101C59.4543 57.3301 59.9443 57.1101 60.4543 56.9301C61.4443 56.6001 62.4543 56.5001 63.4643 56.6301C63.8143 56.6801 64.1643 56.7601 64.4943 56.8801C64.8243 57.0001 65.0943 57.2101 65.2843 57.4901C65.4343 57.7101 65.5143 57.9401 65.5043 58.1901C65.4943 58.4301 65.4343 58.6601 65.3243 58.8801C65.1943 59.1901 65.0243 59.4701 64.8243 59.7301C64.6243 59.9801 64.4243 60.2301 64.2243 60.4801C63.6543 61.1201 63.0143 61.7401 62.3043 62.3401C61.9243 62.6701 61.5543 63.0001 61.1743 63.3201C60.7943 63.6401 60.4243 63.9601 60.0443 64.2601L57.6643 66.0501C57.3143 66.2901 56.9643 66.5401 56.6243 66.8001C56.2843 67.0501 55.9243 67.3001 55.5443 67.5501C55.3043 67.7301 55.0543 67.9001 54.7943 68.0801C54.5443 68.2601 54.2943 68.4301 54.0543 68.6101C53.9443 68.6501 53.8443 68.7101 53.7543 68.7801C53.6643 68.8501 53.5643 68.9101 53.4543 68.9801C53.3643 69.0201 53.2743 69.0401 53.1943 69.0101C53.1743 69.4101 53.1743 69.7901 53.1943 70.1701V70.4701C53.1943 70.4701 53.2243 70.5701 53.2243 70.6401V70.7401C53.2443 70.8301 53.2643 70.9201 53.2943 71.0101C53.3143 71.1001 53.3343 71.2001 53.3643 71.3101C53.4043 71.4001 53.4443 71.4801 53.4643 71.5601C53.4843 71.6401 53.5243 71.7301 53.5643 71.8401V71.8701C53.6343 71.9401 53.6543 71.9701 53.6343 71.9701C53.6543 72.0101 53.6743 72.0501 53.7043 72.0901C53.7243 72.1201 53.7443 72.1601 53.7743 72.2101C53.8143 72.2601 53.8443 72.2901 53.8443 72.3101C53.8643 72.3301 53.8743 72.3501 53.8743 72.3801C53.9143 72.4001 53.9443 72.4201 53.9543 72.4501C53.9643 72.4701 53.9943 72.5001 54.0343 72.5501L54.1043 72.6201C54.1043 72.6201 54.1343 72.6301 54.1343 72.6501C54.1743 72.6701 54.2343 72.7201 54.3043 72.7801H54.3343C54.3343 72.7801 54.3543 72.8101 54.3343 72.8101C54.3543 72.8101 54.3743 72.8101 54.3843 72.8301C54.3943 72.8401 54.4143 72.8501 54.4343 72.8501C54.4543 72.8701 54.4743 72.8801 54.5043 72.8801C54.5243 72.8801 54.5443 72.8901 54.5743 72.9101C54.6443 72.9301 54.7143 72.9701 54.8043 73.0101H54.8743C54.8743 73.0101 54.9443 73.0101 54.9543 73.0301C54.9543 73.0401 54.9843 73.0501 55.0043 73.0501C55.0443 73.0501 55.0943 73.0501 55.1543 73.0701C55.2143 73.0801 55.2543 73.0901 55.3043 73.0901H55.3743C55.3743 73.0901 55.4443 73.0901 55.4543 73.1101C55.4643 73.1201 55.4943 73.1301 55.5343 73.1301C55.7143 73.1301 55.8943 73.1301 56.0843 73.1101C56.2743 73.1001 56.4543 73.0801 56.6343 73.0601C57.4243 72.9501 58.2143 72.7701 58.9843 72.5101C59.7543 72.2601 60.4943 71.9501 61.2043 71.6001C61.8443 71.2901 62.4543 70.9601 63.0443 70.6101C63.6343 70.2601 64.2043 69.8801 64.7843 69.4801C65.2743 69.1701 65.7543 68.8201 66.2443 68.4201L66.2143 68.3501ZM53.8943 65.9001C53.6743 66.5401 53.4943 67.2001 53.3643 67.8901C53.4543 67.8501 53.5343 67.8001 53.6143 67.7401C53.6943 67.6901 53.7743 67.6201 53.8643 67.5601C54.1743 67.3601 54.4743 67.1601 54.7543 66.9601C55.0443 66.7601 55.3243 66.5501 55.6143 66.3301C56.4043 65.7801 57.1443 65.2401 57.8343 64.7101C58.2343 64.4201 58.6243 64.1301 59.0143 63.8301C59.4043 63.5301 59.7843 63.2301 60.1543 62.9201C60.5343 62.6101 60.8943 62.3001 61.2443 61.9901C61.5943 61.6801 61.9443 61.3701 62.2743 61.0601L63.1643 60.1701L63.2643 60.0701C63.2643 60.0701 63.2643 60.0401 63.2843 60.0401C63.3043 60.0401 63.3043 60.0301 63.3043 60.0101H63.3343C63.3543 59.9401 63.4143 59.8701 63.5043 59.7801C63.5443 59.7101 63.6043 59.6501 63.6643 59.5801C63.7343 59.5101 63.7843 59.4501 63.8343 59.3801C63.9243 59.2701 64.0143 59.1501 64.1043 59.0201C64.1943 58.8901 64.2643 58.7501 64.3343 58.6201C64.3543 58.5801 64.3743 58.5201 64.4043 58.4501C64.4243 58.3801 64.4443 58.3301 64.4743 58.2901C64.4943 58.2501 64.5043 58.2101 64.5043 58.1901C64.5043 58.1701 64.5143 58.1501 64.5343 58.1201V58.0901C64.5343 58.0901 64.5443 58.0201 64.5643 58.0201V57.6901C64.5643 57.6901 64.4943 57.6001 64.4943 57.5601V57.5301C64.4943 57.5301 64.4643 57.5201 64.4643 57.5001H64.4343L64.4043 57.4701H64.3743C64.3743 57.4701 64.3643 57.4401 64.3443 57.4401C64.3043 57.4201 64.2743 57.4101 64.2643 57.4101C64.2543 57.4101 64.2243 57.4001 64.1843 57.3801H64.0543C64.0543 57.3801 63.9743 57.3501 63.9343 57.3501C63.8943 57.3501 63.8643 57.3401 63.8143 57.3201H63.6443C63.6443 57.3201 63.5543 57.3201 63.4943 57.3001C63.4343 57.2801 63.3843 57.2801 63.3443 57.2801H62.9643C62.8443 57.2801 62.7243 57.2901 62.6143 57.3101H62.4143C62.4143 57.3101 62.3743 57.3101 62.3643 57.3301C62.3543 57.3401 62.3343 57.3501 62.3143 57.3501C62.2243 57.3501 62.0943 57.3701 61.9143 57.4201C61.6543 57.4601 61.4043 57.5301 61.1843 57.6201C61.0743 57.6701 60.9543 57.7101 60.8343 57.7501C60.7143 57.7901 60.5943 57.8401 60.4843 57.8801C60.4643 57.8801 60.4443 57.8901 60.4143 57.9101C60.3743 57.9101 60.3443 57.9201 60.3443 57.9401C60.2743 57.9401 60.2243 57.9601 60.1743 58.0101C60.1343 58.0501 60.0743 58.0901 60.0043 58.1101C59.9343 58.1301 59.8843 58.1701 59.8443 58.2101C59.3543 58.4501 58.9143 58.7501 58.5043 59.1001C58.0943 59.4501 57.7043 59.8201 57.3243 60.1901C56.9443 60.5901 56.5943 61.0101 56.2643 61.4601C55.9343 61.9101 55.6143 62.3801 55.3043 62.8701C55.0143 63.3601 54.7543 63.8501 54.5243 64.3601C54.2943 64.8701 54.0743 65.3901 53.8743 65.9201L53.8943 65.9001ZM54.3243 72.7601C54.3243 72.7601 54.3143 72.7301 54.2943 72.7301C54.3143 72.7301 54.3243 72.7401 54.3243 72.7601ZM54.8243 72.9601H54.7943C54.7943 72.9601 54.8643 72.9301 54.8743 72.9401C54.8843 72.9501 54.8743 72.9601 54.8543 72.9601H54.8243ZM64.4943 57.5601C64.4943 57.5601 64.5043 57.6001 64.5243 57.6301C64.5443 57.6501 64.5443 57.6401 64.5243 57.6001L64.4943 57.5701V57.5601Z" fill="#58595B" stroke="#58595B" stroke-width="0.62" stroke-miterlimit="10"/>
<path d="M78.3743 68.55C78.3743 68.55 78.4743 68.67 78.5543 68.77C78.6343 68.87 78.6143 68.95 78.5043 69.02C78.4343 69.06 78.3743 69.1 78.3043 69.14C78.2343 69.17 78.1743 69.21 78.1043 69.26C77.6643 69.52 77.2243 69.78 76.7743 70.04C76.3343 70.29 75.8943 70.54 75.4443 70.79C74.8043 71.14 74.1643 71.48 73.5243 71.8C72.8843 72.12 72.2243 72.43 71.5343 72.74C71.0243 72.98 70.4943 73.21 69.9243 73.42C69.3543 73.63 68.7943 73.76 68.2143 73.8C67.8343 73.84 67.4843 73.82 67.1543 73.72C66.8243 73.62 66.5243 73.45 66.2643 73.21C66.0243 72.99 65.8543 72.74 65.7643 72.45C65.6743 72.16 65.6243 71.88 65.5943 71.59C65.5743 71.21 65.5943 70.84 65.6443 70.48C65.6943 70.12 65.7743 69.76 65.8543 69.4C65.9643 68.91 66.0943 68.45 66.2343 67.99C66.3743 67.54 66.5343 67.09 66.7143 66.65C66.8743 66.27 67.0243 65.9 67.1743 65.54C67.3243 65.18 67.4943 64.81 67.6743 64.43C67.2543 64.5 66.8443 64.57 66.4343 64.65C66.0243 64.73 65.6143 64.81 65.1943 64.9C65.0843 64.94 64.9643 64.94 64.8443 64.88C64.7243 64.82 64.6243 64.75 64.5643 64.66C64.4943 64.59 64.4543 64.51 64.4343 64.41C64.4143 64.31 64.4543 64.25 64.5643 64.23C64.7443 64.19 64.9143 64.15 65.0943 64.11C65.2743 64.08 65.4443 64.04 65.6243 63.99C66.0443 63.92 66.4543 63.85 66.8643 63.77C67.2743 63.69 67.6743 63.62 68.0743 63.55C68.5543 62.62 69.0443 61.72 69.5343 60.83C69.8043 60.39 70.0643 59.96 70.3343 59.55C70.5943 59.14 70.8743 58.73 71.1643 58.31C71.4043 57.96 71.6543 57.62 71.8943 57.3C72.1343 56.98 72.4043 56.67 72.6843 56.36C72.8643 56.16 73.0443 55.96 73.2443 55.76C73.4443 55.56 73.6643 55.41 73.9043 55.3C74.1743 55.17 74.4443 55.12 74.7343 55.17C75.0243 55.21 75.2743 55.35 75.4943 55.57C75.6743 55.79 75.7443 56.03 75.7143 56.3C75.6843 56.56 75.6243 56.82 75.5343 57.06C75.4043 57.44 75.2443 57.79 75.0543 58.12C74.8643 58.45 74.6743 58.78 74.4743 59.11C74.2043 59.55 73.9343 59.98 73.6643 60.39C73.3843 60.8 73.0943 61.21 72.7843 61.63C72.6043 61.87 72.4243 62.12 72.2343 62.38C72.0443 62.63 71.8543 62.88 71.6543 63.12C72.3843 63.05 73.1143 63.02 73.8443 63.02C74.2643 63.02 74.6843 63.03 75.1043 63.05C75.5243 63.07 75.9443 63.14 76.3643 63.25C76.4743 63.29 76.5843 63.35 76.6943 63.42C76.8043 63.49 76.8843 63.57 76.9243 63.68C76.9643 63.79 76.9443 63.86 76.8443 63.9C76.7443 63.93 76.6543 63.94 76.5643 63.92L75.9643 63.82C75.9643 63.82 75.8743 63.79 75.8143 63.79C75.7543 63.79 75.6943 63.78 75.6343 63.76H75.3743C75.1343 63.74 74.8843 63.73 74.6243 63.73H73.8743C72.9043 63.77 71.9643 63.84 71.0543 63.93C71.0143 63.97 70.9743 64.03 70.9343 64.1C70.9043 64.17 70.8643 64.22 70.8143 64.27C70.5043 64.67 70.1943 65.06 69.8843 65.45C69.5743 65.84 69.2643 66.22 68.9543 66.59C68.7143 66.88 68.4743 67.16 68.2443 67.43C68.0143 67.71 67.7743 67.99 67.5343 68.28C67.4443 68.39 67.3543 68.49 67.2643 68.59C67.1743 68.69 67.0843 68.79 67.0043 68.9L66.9743 68.93V68.96C66.9543 69.05 66.9143 69.16 66.8743 69.29V69.32C66.8743 69.32 66.8643 69.36 66.8443 69.39C66.8443 69.46 66.8343 69.51 66.8143 69.56C66.7743 69.74 66.7343 69.92 66.6943 70.12C66.6643 70.32 66.6243 70.52 66.5743 70.72C66.5543 70.9 66.5343 71.06 66.5243 71.22C66.5143 71.37 66.5043 71.54 66.5043 71.72C66.5243 71.83 66.5343 71.97 66.5343 72.15V72.22C66.5343 72.22 66.5643 72.28 66.5643 72.32C66.5843 72.36 66.5943 72.4 66.5943 72.42C66.5943 72.44 66.6043 72.47 66.6243 72.52C66.6243 72.54 66.6243 72.56 66.6443 72.59C66.6443 72.61 66.6643 72.65 66.6643 72.69H66.6943V72.72L66.7243 72.75C66.7243 72.75 66.7643 72.82 66.7743 72.83C66.7843 72.84 66.8043 72.87 66.8243 72.91L66.8543 72.94C66.8543 72.94 66.8543 72.97 66.8743 72.97C66.8843 72.97 66.8943 72.98 66.8943 73C66.9143 73 66.9343 73.01 66.9643 73.03H66.9943C66.9943 73.03 67.0343 73.06 67.0643 73.06C67.0843 73.06 67.1043 73.07 67.1343 73.09H67.2343C67.2343 73.09 67.2643 73.09 67.2643 73.11C67.2643 73.12 67.2743 73.13 67.2943 73.13H67.3243C67.5243 73.13 67.6743 73.12 67.7843 73.1H67.8143C67.8143 73.1 67.9043 73.07 67.9443 73.07C68.0143 73.07 68.0743 73.06 68.1443 73.04C68.2143 73.02 68.2643 73.01 68.3143 73.01C68.5543 72.94 68.8343 72.86 69.1443 72.75C69.7843 72.53 70.4043 72.29 71.0143 72.02C71.6243 71.76 72.2343 71.47 72.8543 71.16C73.4243 70.85 73.9943 70.54 74.5443 70.23C75.0943 69.92 75.6443 69.61 76.2043 69.3C76.6643 69.06 77.1543 68.77 77.6643 68.44C77.7743 68.37 77.8843 68.36 77.9943 68.41C78.1043 68.45 78.2143 68.51 78.3243 68.58L78.3743 68.55ZM67.1243 73.12C67.1243 73.12 67.0843 73.09 67.0543 73.09H67.0843L67.1143 73.12H67.1243ZM68.8143 65.17C68.9443 64.99 69.0843 64.82 69.2243 64.66C69.3643 64.49 69.5043 64.32 69.6343 64.15C69.5043 64.15 69.3743 64.16 69.2543 64.18C69.1343 64.2 69.0043 64.22 68.8743 64.25C68.7643 64.47 68.6543 64.69 68.5543 64.9C68.4543 65.11 68.3543 65.34 68.2443 65.58C68.1943 65.69 68.1543 65.8 68.1143 65.89C68.0743 65.99 68.0243 66.09 67.9843 66.2C68.2443 65.82 68.5243 65.48 68.8143 65.17ZM69.6743 62.69C69.5443 62.93 69.4243 63.18 69.3143 63.42C69.4743 63.4 69.6343 63.38 69.7943 63.35C69.9543 63.33 70.1343 63.31 70.3043 63.28C70.4143 63.13 70.5543 62.94 70.7343 62.72C71.0443 62.3 71.3543 61.88 71.6643 61.46C71.9743 61.04 72.2743 60.61 72.5543 60.17C72.8143 59.79 73.0743 59.41 73.3143 59.03C73.5543 58.64 73.8043 58.25 74.0443 57.85C74.1343 57.67 74.2143 57.51 74.2943 57.35C74.3743 57.2 74.4443 57.04 74.5143 56.89C74.5543 56.8 74.5843 56.72 74.5943 56.66C74.6043 56.59 74.6343 56.53 74.6743 56.46C74.6743 56.42 74.6843 56.38 74.7043 56.36V56.33C74.7043 56.33 74.7043 56.26 74.7243 56.25C74.7343 56.24 74.7443 56.21 74.7443 56.17C74.7443 56.13 74.7443 56.08 74.7643 56.04C74.7743 56 74.7843 55.95 74.7843 55.91H74.6843C74.6843 55.91 74.6743 55.94 74.6543 55.94C74.5443 55.98 74.4543 56.04 74.3743 56.12C74.2943 56.2 74.2043 56.27 74.0943 56.34C73.9843 56.45 73.8743 56.56 73.7743 56.65C73.6743 56.75 73.5843 56.85 73.4943 56.96C73.4743 56.96 73.4643 56.97 73.4643 56.99C73.4643 57.01 73.4543 57.02 73.4343 57.02L73.3343 57.12C73.3343 57.12 73.2543 57.2 73.2343 57.22C73.2143 57.24 73.1843 57.28 73.1343 57.32C73.0943 57.41 73.0343 57.49 72.9643 57.57C72.8943 57.65 72.8443 57.72 72.8043 57.79C72.5143 58.17 72.2443 58.54 71.9943 58.9C71.7443 59.27 71.4943 59.63 71.2443 60.01C70.9843 60.45 70.7143 60.9 70.4543 61.35C70.1943 61.8 69.9343 62.25 69.6943 62.69H69.6743ZM74.7643 55.73H74.7343C74.7343 55.73 74.7443 55.71 74.7643 55.73ZM74.7643 55.8C74.7643 55.8 74.7743 55.83 74.7943 55.83C74.7743 55.83 74.7643 55.82 74.7643 55.8Z" fill="#58595B" stroke="#58595B" stroke-miterlimit="10"/>
<path d="M78.3743 68.55C78.3743 68.55 78.4743 68.67 78.5543 68.77C78.6343 68.87 78.6143 68.95 78.5043 69.02C78.4343 69.06 78.3743 69.1 78.3043 69.14C78.2343 69.17 78.1743 69.21 78.1043 69.26C77.6643 69.52 77.2243 69.78 76.7743 70.04C76.3343 70.29 75.8943 70.54 75.4443 70.79C74.8043 71.14 74.1643 71.48 73.5243 71.8C72.8843 72.12 72.2243 72.43 71.5343 72.74C71.0243 72.98 70.4943 73.21 69.9243 73.42C69.3543 73.63 68.7943 73.76 68.2143 73.8C67.8343 73.84 67.4843 73.82 67.1543 73.72C66.8243 73.62 66.5243 73.45 66.2643 73.21C66.0243 72.99 65.8543 72.74 65.7643 72.45C65.6743 72.16 65.6243 71.88 65.5943 71.59C65.5743 71.21 65.5943 70.84 65.6443 70.48C65.6943 70.12 65.7743 69.76 65.8543 69.4C65.9643 68.91 66.0943 68.45 66.2343 67.99C66.3743 67.54 66.5343 67.09 66.7143 66.65C66.8743 66.27 67.0243 65.9 67.1743 65.54C67.3243 65.18 67.4943 64.81 67.6743 64.43C67.2543 64.5 66.8443 64.57 66.4343 64.65C66.0243 64.73 65.6143 64.81 65.1943 64.9C65.0843 64.94 64.9643 64.94 64.8443 64.88C64.7243 64.82 64.6243 64.75 64.5643 64.66C64.4943 64.59 64.4543 64.51 64.4343 64.41C64.4143 64.31 64.4543 64.25 64.5643 64.23C64.7443 64.19 64.9143 64.15 65.0943 64.11C65.2743 64.08 65.4443 64.04 65.6243 63.99C66.0443 63.92 66.4543 63.85 66.8643 63.77C67.2743 63.69 67.6743 63.62 68.0743 63.55C68.5543 62.62 69.0443 61.72 69.5343 60.83C69.8043 60.39 70.0643 59.96 70.3343 59.55C70.5943 59.14 70.8743 58.73 71.1643 58.31C71.4043 57.96 71.6543 57.62 71.8943 57.3C72.1343 56.98 72.4043 56.67 72.6843 56.36C72.8643 56.16 73.0443 55.96 73.2443 55.76C73.4443 55.56 73.6643 55.41 73.9043 55.3C74.1743 55.17 74.4443 55.12 74.7343 55.17C75.0243 55.21 75.2743 55.35 75.4943 55.57C75.6743 55.79 75.7443 56.03 75.7143 56.3C75.6843 56.56 75.6243 56.82 75.5343 57.06C75.4043 57.44 75.2443 57.79 75.0543 58.12C74.8643 58.45 74.6743 58.78 74.4743 59.11C74.2043 59.55 73.9343 59.98 73.6643 60.39C73.3843 60.8 73.0943 61.21 72.7843 61.63C72.6043 61.87 72.4243 62.12 72.2343 62.38C72.0443 62.63 71.8543 62.88 71.6543 63.12C72.3843 63.05 73.1143 63.02 73.8443 63.02C74.2643 63.02 74.6843 63.03 75.1043 63.05C75.5243 63.07 75.9443 63.14 76.3643 63.25C76.4743 63.29 76.5843 63.35 76.6943 63.42C76.8043 63.49 76.8843 63.57 76.9243 63.68C76.9643 63.79 76.9443 63.86 76.8443 63.9C76.7443 63.93 76.6543 63.94 76.5643 63.92L75.9643 63.82C75.9643 63.82 75.8743 63.79 75.8143 63.79C75.7543 63.79 75.6943 63.78 75.6343 63.76H75.3743C75.1343 63.74 74.8843 63.73 74.6243 63.73H73.8743C72.9043 63.77 71.9643 63.84 71.0543 63.93C71.0143 63.97 70.9743 64.03 70.9343 64.1C70.9043 64.17 70.8643 64.22 70.8143 64.27C70.5043 64.67 70.1943 65.06 69.8843 65.45C69.5743 65.84 69.2643 66.22 68.9543 66.59C68.7143 66.88 68.4743 67.16 68.2443 67.43C68.0143 67.71 67.7743 67.99 67.5343 68.28C67.4443 68.39 67.3543 68.49 67.2643 68.59C67.1743 68.69 67.0843 68.79 67.0043 68.9L66.9743 68.93V68.96C66.9543 69.05 66.9143 69.16 66.8743 69.29V69.32C66.8743 69.32 66.8643 69.36 66.8443 69.39C66.8443 69.46 66.8343 69.51 66.8143 69.56C66.7743 69.74 66.7343 69.92 66.6943 70.12C66.6643 70.32 66.6243 70.52 66.5743 70.72C66.5543 70.9 66.5343 71.06 66.5243 71.22C66.5143 71.37 66.5043 71.54 66.5043 71.72C66.5243 71.83 66.5343 71.97 66.5343 72.15V72.22C66.5343 72.22 66.5643 72.28 66.5643 72.32C66.5843 72.36 66.5943 72.4 66.5943 72.42C66.5943 72.44 66.6043 72.47 66.6243 72.52C66.6243 72.54 66.6243 72.56 66.6443 72.59C66.6443 72.61 66.6643 72.65 66.6643 72.69H66.6943V72.72L66.7243 72.75C66.7243 72.75 66.7643 72.82 66.7743 72.83C66.7843 72.84 66.8043 72.87 66.8243 72.91L66.8543 72.94C66.8543 72.94 66.8543 72.97 66.8743 72.97C66.8843 72.97 66.8943 72.98 66.8943 73C66.9143 73 66.9343 73.01 66.9643 73.03H66.9943C66.9943 73.03 67.0343 73.06 67.0643 73.06C67.0843 73.06 67.1043 73.07 67.1343 73.09H67.2343C67.2343 73.09 67.2643 73.09 67.2643 73.11C67.2643 73.12 67.2743 73.13 67.2943 73.13H67.3243C67.5243 73.13 67.6743 73.12 67.7843 73.1H67.8143C67.8143 73.1 67.9043 73.07 67.9443 73.07C68.0143 73.07 68.0743 73.06 68.1443 73.04C68.2143 73.02 68.2643 73.01 68.3143 73.01C68.5543 72.94 68.8343 72.86 69.1443 72.75C69.7843 72.53 70.4043 72.29 71.0143 72.02C71.6243 71.76 72.2343 71.47 72.8543 71.16C73.4243 70.85 73.9943 70.54 74.5443 70.23C75.0943 69.92 75.6443 69.61 76.2043 69.3C76.6643 69.06 77.1543 68.77 77.6643 68.44C77.7743 68.37 77.8843 68.36 77.9943 68.41C78.1043 68.45 78.2143 68.51 78.3243 68.58L78.3743 68.55ZM67.1743 73.09C67.1743 73.09 67.1343 73.06 67.1043 73.06H67.1343L67.1643 73.09H67.1743ZM68.8643 65.14C68.9943 64.96 69.1343 64.79 69.2743 64.63C69.4143 64.46 69.5543 64.29 69.6843 64.12C69.5543 64.12 69.4243 64.13 69.3043 64.15C69.1843 64.17 69.0543 64.19 68.9243 64.22C68.8143 64.44 68.7043 64.66 68.6043 64.87C68.5043 65.08 68.4043 65.31 68.2943 65.55C68.2443 65.66 68.2043 65.77 68.1643 65.86C68.1243 65.96 68.0743 66.06 68.0343 66.17C68.2943 65.79 68.5743 65.45 68.8643 65.14ZM69.7243 62.66C69.5943 62.9 69.4743 63.15 69.3643 63.39C69.5243 63.37 69.6843 63.35 69.8443 63.32C70.0043 63.3 70.1843 63.28 70.3543 63.25C70.4643 63.1 70.6043 62.91 70.7843 62.69C71.0943 62.27 71.4043 61.85 71.7143 61.43C72.0243 61.01 72.3243 60.58 72.6043 60.14C72.8643 59.76 73.1243 59.38 73.3643 59C73.6043 58.61 73.8543 58.22 74.0943 57.82C74.1843 57.64 74.2643 57.48 74.3443 57.32C74.4243 57.17 74.4943 57.01 74.5643 56.86C74.6043 56.77 74.6343 56.69 74.6443 56.63C74.6543 56.56 74.6843 56.5 74.7243 56.43C74.7243 56.39 74.7343 56.35 74.7543 56.33V56.3C74.7543 56.3 74.7543 56.23 74.7743 56.22C74.7843 56.21 74.7943 56.18 74.7943 56.14C74.7943 56.1 74.7943 56.05 74.8143 56.01C74.8243 55.97 74.8343 55.92 74.8343 55.88H74.7343C74.7343 55.88 74.7243 55.91 74.7043 55.91C74.5943 55.95 74.5043 56.01 74.4243 56.09C74.3443 56.17 74.2543 56.24 74.1443 56.31C74.0343 56.42 73.9243 56.53 73.8243 56.62C73.7243 56.72 73.6343 56.82 73.5443 56.93C73.5243 56.93 73.5143 56.94 73.5143 56.96C73.5143 56.98 73.5043 56.99 73.4843 56.99L73.3843 57.09C73.3843 57.09 73.3043 57.17 73.2843 57.19C73.2643 57.21 73.2343 57.25 73.1843 57.29C73.1443 57.38 73.0843 57.46 73.0143 57.54C72.9443 57.62 72.8943 57.69 72.8543 57.76C72.5643 58.14 72.2943 58.51 72.0443 58.87C71.7943 59.24 71.5443 59.6 71.2943 59.98C71.0343 60.42 70.7643 60.87 70.5043 61.32C70.2443 61.77 69.9843 62.22 69.7443 62.66H69.7243ZM74.7943 55.7H74.7643C74.7643 55.7 74.7743 55.68 74.7943 55.7ZM74.7943 55.77C74.7943 55.77 74.8043 55.8 74.8243 55.8C74.8043 55.8 74.7943 55.79 74.7943 55.77Z" fill="#58595B" stroke="#58595B" stroke-width="0.62" stroke-miterlimit="10"/>
<path d="M94.8643 68.4201C94.9343 68.4601 95.0043 68.5401 95.0843 68.6501C95.1643 68.7601 95.1443 68.8401 95.0343 68.8801C95.0143 68.8801 95.0043 68.8901 95.0043 68.9101C94.8943 68.9801 94.7743 69.0401 94.6543 69.0901C94.5343 69.1501 94.4143 69.2101 94.3043 69.2701C94.0843 69.3801 93.8643 69.5001 93.6443 69.6301C93.4243 69.7601 93.1943 69.8801 92.9443 69.9901C92.3243 70.3001 91.7043 70.5901 91.0743 70.8501C90.4443 71.1201 89.7943 71.3601 89.1343 71.5801C88.5143 71.8001 87.8743 71.9701 87.2143 72.0801C86.9043 72.1201 86.5943 72.1501 86.2743 72.1601C85.9543 72.1701 85.6343 72.1201 85.3343 72.0101C85.0743 71.9001 84.8343 71.7501 84.6243 71.5501C84.4143 71.3501 84.2743 71.1101 84.2143 70.8201C84.1443 70.6401 84.1243 70.4601 84.1343 70.2601C84.1443 70.0601 84.1743 69.8601 84.2143 69.6601C84.1243 69.7301 84.0143 69.8301 83.8843 69.9601C83.3543 70.4001 82.8143 70.8301 82.2743 71.2401C81.7343 71.6501 81.1543 72.0101 80.5343 72.3201C80.0243 72.6301 79.4743 72.8201 78.8743 72.8801C78.5443 72.9201 78.2143 72.9001 77.8943 72.8001C77.5743 72.7001 77.2943 72.5401 77.0443 72.3201C76.8443 72.1201 76.7243 71.9001 76.6643 71.6601C76.6143 71.4201 76.5943 71.1601 76.6343 70.9001C76.6643 70.6301 76.7243 70.3801 76.8143 70.1201C76.9043 69.8701 77.0043 69.6401 77.1143 69.4401C77.4043 68.8201 77.7743 68.2101 78.2443 67.6201C78.3143 67.5101 78.3943 67.4701 78.5143 67.4901C78.6243 67.5101 78.7243 67.5501 78.8143 67.5901C78.8843 67.6301 78.9643 67.7101 79.0643 67.8101C79.1643 67.9101 79.1843 68.0001 79.1143 68.0901V68.1601C79.0243 68.2701 78.9343 68.3901 78.8543 68.5101C78.7643 68.6301 78.6843 68.7501 78.6243 68.8601C78.3343 69.3201 78.1043 69.7701 77.9243 70.1901C77.7943 70.4301 77.6943 70.6801 77.6243 70.9201V71.0501C77.6243 71.0501 77.5943 71.0901 77.5943 71.1201C77.5943 71.1501 77.5843 71.1801 77.5643 71.2201V71.7801C77.5643 71.8501 77.5743 71.8901 77.5943 71.9101C77.5943 71.9301 77.5943 71.9501 77.6143 71.9601C77.6243 71.9701 77.6343 71.9901 77.6343 72.0101C77.6343 72.0101 77.6443 72.0601 77.6643 72.0801H77.6943V72.1501H77.7243C77.7243 72.1501 77.7643 72.1501 77.7743 72.1701C77.7843 72.1801 77.8143 72.1901 77.8543 72.1901L77.8843 72.2201H78.5443C78.6143 72.2001 78.6743 72.1801 78.7243 72.1701C78.7743 72.1601 78.8443 72.1401 78.9043 72.1201C78.9743 72.1001 79.0343 72.0801 79.0843 72.0501C79.1343 72.0301 79.2043 72.0101 79.2643 71.9801L79.4643 71.8801L79.5343 71.8501C79.5343 71.8501 79.6043 71.8401 79.6043 71.8201C79.7643 71.7501 79.9043 71.6801 80.0343 71.6001C80.1643 71.5201 80.3043 71.4401 80.4343 71.3501C80.9843 71.0201 81.5143 70.6501 82.0243 70.2601C82.5343 69.8601 83.0243 69.4401 83.5143 69.0001C84.0043 68.5801 84.4843 68.1301 84.9743 67.6401C85.0443 67.5701 85.1443 67.5601 85.2743 67.6101C85.4043 67.6501 85.5043 67.7001 85.5743 67.7401C85.6443 67.7801 85.7043 67.8401 85.7743 67.9201C85.8443 68.0001 85.8543 68.0801 85.8043 68.1701C85.6943 68.3901 85.6043 68.6001 85.5343 68.8001C85.4943 68.9101 85.4543 69.0201 85.4143 69.1101C85.3843 69.2101 85.3443 69.3101 85.2943 69.4201C85.2443 69.5301 85.2143 69.6301 85.1943 69.7201C85.1743 69.8101 85.1343 69.9301 85.0943 70.0901C85.0743 70.2001 85.0643 70.3101 85.0643 70.4201V70.9801C85.0643 70.9801 85.1043 71.0701 85.1143 71.1101C85.1143 71.1501 85.1443 71.2001 85.1643 71.2401C85.1843 71.2601 85.1943 71.2801 85.1943 71.3101L85.2243 71.3401L85.2543 71.3701L85.2243 71.3401C85.2243 71.3401 85.2543 71.3501 85.2543 71.3701C85.2743 71.3701 85.2843 71.3801 85.2843 71.4001H85.3543C85.3543 71.4001 85.3743 71.4301 85.4243 71.4301C85.4643 71.4501 85.5243 71.4601 85.5943 71.4601L85.6643 71.4901H85.7343C85.9143 71.4901 86.0443 71.4801 86.1343 71.4601H86.3343C86.3343 71.4601 86.3743 71.4601 86.3843 71.4401C86.3943 71.4401 86.4143 71.4201 86.4343 71.4201H86.5043C86.6643 71.4001 86.8043 71.3801 86.9343 71.3501C87.0643 71.3301 87.2143 71.2901 87.3643 71.2501C87.6743 71.1801 87.9843 71.1001 88.3043 70.9801C88.6243 70.8701 88.9343 70.7601 89.2443 70.6501C90.1043 70.3401 90.9543 69.9801 91.7943 69.5701C92.6343 69.1601 93.4443 68.7201 94.2443 68.2601C94.3543 68.1901 94.4643 68.1801 94.5743 68.2301C94.6843 68.2701 94.7843 68.3301 94.8743 68.4001L94.8643 68.4201ZM77.7543 72.1101C77.7543 72.1101 77.8143 72.1701 77.7843 72.1401C77.7643 72.1201 77.7443 72.1101 77.7143 72.1101H77.7443H77.7543Z" fill="#58595B" stroke="#58595B" stroke-miterlimit="10"/>
<path d="M94.8643 68.4201C94.9343 68.4601 95.0043 68.5401 95.0843 68.6501C95.1643 68.7601 95.1443 68.8401 95.0343 68.8801C95.0143 68.8801 95.0043 68.8901 95.0043 68.9101C94.8943 68.9801 94.7743 69.0401 94.6543 69.0901C94.5343 69.1501 94.4143 69.2101 94.3043 69.2701C94.0843 69.3801 93.8643 69.5001 93.6443 69.6301C93.4243 69.7601 93.1943 69.8801 92.9443 69.9901C92.3243 70.3001 91.7043 70.5901 91.0743 70.8501C90.4443 71.1201 89.7943 71.3601 89.1343 71.5801C88.5143 71.8001 87.8743 71.9701 87.2143 72.0801C86.9043 72.1201 86.5943 72.1501 86.2743 72.1601C85.9543 72.1701 85.6343 72.1201 85.3343 72.0101C85.0743 71.9001 84.8343 71.7501 84.6243 71.5501C84.4143 71.3501 84.2743 71.1101 84.2143 70.8201C84.1443 70.6401 84.1243 70.4601 84.1343 70.2601C84.1443 70.0601 84.1743 69.8601 84.2143 69.6601C84.1243 69.7301 84.0143 69.8301 83.8843 69.9601C83.3543 70.4001 82.8143 70.8301 82.2743 71.2401C81.7343 71.6501 81.1543 72.0101 80.5343 72.3201C80.0243 72.6301 79.4743 72.8201 78.8743 72.8801C78.5443 72.9201 78.2143 72.9001 77.8943 72.8001C77.5743 72.7001 77.2943 72.5401 77.0443 72.3201C76.8443 72.1201 76.7243 71.9001 76.6643 71.6601C76.6143 71.4201 76.5943 71.1601 76.6343 70.9001C76.6643 70.6301 76.7243 70.3801 76.8143 70.1201C76.9043 69.8701 77.0043 69.6401 77.1143 69.4401C77.4043 68.8201 77.7743 68.2101 78.2443 67.6201C78.3143 67.5101 78.3943 67.4701 78.5143 67.4901C78.6243 67.5101 78.7243 67.5501 78.8143 67.5901C78.8843 67.6301 78.9643 67.7101 79.0643 67.8101C79.1643 67.9101 79.1843 68.0001 79.1143 68.0901V68.1601C79.0243 68.2701 78.9343 68.3901 78.8543 68.5101C78.7643 68.6301 78.6843 68.7501 78.6243 68.8601C78.3343 69.3201 78.1043 69.7701 77.9243 70.1901C77.7943 70.4301 77.6943 70.6801 77.6243 70.9201V71.0501C77.6243 71.0501 77.5943 71.0901 77.5943 71.1201C77.5943 71.1501 77.5843 71.1801 77.5643 71.2201V71.7801C77.5643 71.8501 77.5743 71.8901 77.5943 71.9101C77.5943 71.9301 77.5943 71.9501 77.6143 71.9601C77.6243 71.9701 77.6343 71.9901 77.6343 72.0101C77.6343 72.0101 77.6443 72.0601 77.6643 72.0801H77.6943V72.1501H77.7243C77.7243 72.1501 77.7643 72.1501 77.7743 72.1701C77.7843 72.1801 77.8143 72.1901 77.8543 72.1901L77.8843 72.2201H78.5443C78.6143 72.2001 78.6743 72.1801 78.7243 72.1701C78.7743 72.1601 78.8443 72.1401 78.9043 72.1201C78.9743 72.1001 79.0343 72.0801 79.0843 72.0501C79.1343 72.0301 79.2043 72.0101 79.2643 71.9801L79.4643 71.8801L79.5343 71.8501C79.5343 71.8501 79.6043 71.8401 79.6043 71.8201C79.7643 71.7501 79.9043 71.6801 80.0343 71.6001C80.1643 71.5201 80.3043 71.4401 80.4343 71.3501C80.9843 71.0201 81.5143 70.6501 82.0243 70.2601C82.5343 69.8601 83.0243 69.4401 83.5143 69.0001C84.0043 68.5801 84.4843 68.1301 84.9743 67.6401C85.0443 67.5701 85.1443 67.5601 85.2743 67.6101C85.4043 67.6501 85.5043 67.7001 85.5743 67.7401C85.6443 67.7801 85.7043 67.8401 85.7743 67.9201C85.8443 68.0001 85.8543 68.0801 85.8043 68.1701C85.6943 68.3901 85.6043 68.6001 85.5343 68.8001C85.4943 68.9101 85.4543 69.0201 85.4143 69.1101C85.3843 69.2101 85.3443 69.3101 85.2943 69.4201C85.2443 69.5301 85.2143 69.6301 85.1943 69.7201C85.1743 69.8101 85.1343 69.9301 85.0943 70.0901C85.0743 70.2001 85.0643 70.3101 85.0643 70.4201V70.9801C85.0643 70.9801 85.1043 71.0701 85.1143 71.1101C85.1143 71.1501 85.1443 71.2001 85.1643 71.2401C85.1843 71.2601 85.1943 71.2801 85.1943 71.3101L85.2243 71.3401L85.2543 71.3701L85.2243 71.3401C85.2243 71.3401 85.2543 71.3501 85.2543 71.3701C85.2743 71.3701 85.2843 71.3801 85.2843 71.4001H85.3543C85.3543 71.4001 85.3743 71.4301 85.4243 71.4301C85.4643 71.4501 85.5243 71.4601 85.5943 71.4601L85.6643 71.4901H85.7343C85.9143 71.4901 86.0443 71.4801 86.1343 71.4601H86.3343C86.3343 71.4601 86.3743 71.4601 86.3843 71.4401C86.3943 71.4401 86.4143 71.4201 86.4343 71.4201H86.5043C86.6643 71.4001 86.8043 71.3801 86.9343 71.3501C87.0643 71.3301 87.2143 71.2901 87.3643 71.2501C87.6743 71.1801 87.9843 71.1001 88.3043 70.9801C88.6243 70.8701 88.9343 70.7601 89.2443 70.6501C90.1043 70.3401 90.9543 69.9801 91.7943 69.5701C92.6343 69.1601 93.4443 68.7201 94.2443 68.2601C94.3543 68.1901 94.4643 68.1801 94.5743 68.2301C94.6843 68.2701 94.7843 68.3301 94.8743 68.4001L94.8643 68.4201ZM77.7443 72.1301C77.7443 72.1301 77.8043 72.1901 77.7743 72.1601C77.7543 72.1401 77.7343 72.1301 77.7043 72.1301H77.7343H77.7443Z" fill="#58595B" stroke="#58595B" stroke-width="0.62" stroke-miterlimit="10"/>
<path d="M109.414 68.55C109.414 68.55 109.494 68.63 109.524 68.67C109.554 68.7 109.584 68.74 109.604 68.79V68.92C109.604 68.92 109.584 69 109.534 69.02L109.334 69.12C108.914 69.3 108.504 69.47 108.104 69.63C107.704 69.8 107.284 69.97 106.844 70.14C106.224 70.36 105.604 70.57 104.994 70.77C104.374 70.97 103.744 71.12 103.104 71.23C102.664 71.3 102.194 71.35 101.714 71.38C101.234 71.41 100.794 71.3 100.424 71.03C100.184 70.85 100.034 70.66 99.9942 70.45C99.9542 70.24 99.9642 70 100.024 69.74C100.044 69.56 100.104 69.35 100.194 69.11C100.214 69.09 100.224 69.05 100.224 69.01C100.244 68.99 100.254 68.94 100.254 68.88C100.254 68.86 100.254 68.84 100.274 68.81C100.284 68.79 100.294 68.77 100.294 68.74H100.224C100.094 68.74 99.9642 68.74 99.8442 68.76C99.7242 68.77 99.6042 68.79 99.4942 68.81C98.5642 68.99 97.7242 69.36 96.9742 69.94C96.2242 70.51 95.5742 71.18 95.0242 71.93C94.7142 72.33 94.4242 72.75 94.1642 73.19C93.9042 73.63 93.6642 74.08 93.4642 74.55C93.4242 74.66 93.3442 74.71 93.2342 74.68C93.1242 74.66 93.0342 74.63 92.9742 74.58C92.8842 74.54 92.7942 74.48 92.7142 74.41C92.6242 74.34 92.5842 74.26 92.5842 74.15C92.6342 73.27 92.7542 72.39 92.9442 71.53C93.1442 70.67 93.4342 69.85 93.8042 69.08C94.0242 68.64 94.2742 68.21 94.5442 67.79C94.8242 67.37 95.1442 66.98 95.5242 66.63C95.6342 66.52 95.7542 66.42 95.8742 66.33C95.9942 66.24 96.1242 66.15 96.2542 66.07C96.4342 65.94 96.5942 65.86 96.7542 65.84C96.9342 65.8 97.1042 65.82 97.2842 65.91C97.4642 66 97.5742 66.12 97.6142 66.27C97.6342 66.4 97.6042 66.53 97.5142 66.67C97.4042 66.85 97.2742 67.01 97.1342 67.15C96.9942 67.29 96.8442 67.44 96.6842 67.6C96.1342 68.11 95.5842 68.59 95.0242 69.06C94.9842 69.1 94.9342 69.13 94.8942 69.13C94.8042 69.31 94.7242 69.47 94.6442 69.63C94.5642 69.79 94.4942 69.95 94.4242 70.13C94.2042 70.68 94.0242 71.25 93.8942 71.82C94.0042 71.67 94.1142 71.52 94.2042 71.37C94.3042 71.23 94.4042 71.09 94.5242 70.96C95.1642 70.19 95.9042 69.53 96.7442 68.99C97.5842 68.45 98.5242 68.14 99.5642 68.08C99.7442 68.08 99.9242 68.08 100.124 68.1C100.324 68.11 100.514 68.17 100.684 68.28C101.014 68.41 101.194 68.64 101.214 68.98C101.234 69.18 101.214 69.38 101.134 69.58C101.054 69.78 100.984 69.97 100.914 70.14V70.27C100.914 70.27 100.884 70.33 100.884 70.37V70.67H100.854C100.854 70.67 100.814 70.66 100.784 70.64C100.804 70.64 100.814 70.65 100.814 70.67H100.884C100.884 70.67 100.994 70.7 101.084 70.7H101.584C102.134 70.68 102.714 70.58 103.304 70.4C103.944 70.25 104.564 70.07 105.164 69.87C105.764 69.67 106.354 69.45 106.954 69.21C107.174 69.1 107.394 69.01 107.614 68.93C107.834 68.85 108.054 68.76 108.274 68.65C108.364 68.63 108.494 68.57 108.674 68.49C108.694 68.49 108.734 68.47 108.794 68.44C108.854 68.41 108.834 68.41 108.744 68.46C108.854 68.42 108.964 68.41 109.074 68.44C109.184 68.47 109.294 68.52 109.404 68.59L109.414 68.55ZM97.3942 66.54C97.3942 66.54 97.3942 66.55 97.3442 66.57C97.3642 66.55 97.3842 66.54 97.3942 66.54ZM100.394 68.79C100.394 68.79 100.434 68.81 100.464 68.79H100.394ZM100.464 68.79C100.464 68.79 100.504 68.82 100.514 68.82C100.514 68.82 100.514 68.81 100.464 68.79Z" fill="#58595B" stroke="#58595B" stroke-miterlimit="10"/>
<path d="M109.414 68.55C109.414 68.55 109.494 68.63 109.524 68.67C109.554 68.7 109.584 68.74 109.604 68.79V68.92C109.604 68.92 109.584 69 109.534 69.02L109.334 69.12C108.914 69.3 108.504 69.47 108.104 69.63C107.704 69.8 107.284 69.97 106.844 70.14C106.224 70.36 105.604 70.57 104.994 70.77C104.374 70.97 103.744 71.12 103.104 71.23C102.664 71.3 102.194 71.35 101.714 71.38C101.234 71.41 100.794 71.3 100.424 71.03C100.184 70.85 100.034 70.66 99.9942 70.45C99.9542 70.24 99.9642 70 100.024 69.74C100.044 69.56 100.104 69.35 100.194 69.11C100.214 69.09 100.224 69.05 100.224 69.01C100.244 68.99 100.254 68.94 100.254 68.88C100.254 68.86 100.254 68.84 100.274 68.81C100.284 68.79 100.294 68.77 100.294 68.74H100.224C100.094 68.74 99.9642 68.74 99.8442 68.76C99.7242 68.77 99.6042 68.79 99.4942 68.81C98.5642 68.99 97.7242 69.36 96.9742 69.94C96.2242 70.51 95.5742 71.18 95.0242 71.93C94.7142 72.33 94.4242 72.75 94.1642 73.19C93.9042 73.63 93.6642 74.08 93.4642 74.55C93.4242 74.66 93.3442 74.71 93.2342 74.68C93.1242 74.66 93.0342 74.63 92.9742 74.58C92.8842 74.54 92.7942 74.48 92.7142 74.41C92.6242 74.34 92.5842 74.26 92.5842 74.15C92.6342 73.27 92.7542 72.39 92.9442 71.53C93.1442 70.67 93.4342 69.85 93.8042 69.08C94.0242 68.64 94.2742 68.21 94.5442 67.79C94.8242 67.37 95.1442 66.98 95.5242 66.63C95.6342 66.52 95.7542 66.42 95.8742 66.33C95.9942 66.24 96.1242 66.15 96.2542 66.07C96.4342 65.94 96.5942 65.86 96.7542 65.84C96.9342 65.8 97.1042 65.82 97.2842 65.91C97.4642 66 97.5742 66.12 97.6142 66.27C97.6342 66.4 97.6042 66.53 97.5142 66.67C97.4042 66.85 97.2742 67.01 97.1342 67.15C96.9942 67.29 96.8442 67.44 96.6842 67.6C96.1342 68.11 95.5842 68.59 95.0242 69.06C94.9842 69.1 94.9342 69.13 94.8942 69.13C94.8042 69.31 94.7242 69.47 94.6442 69.63C94.5642 69.79 94.4942 69.95 94.4242 70.13C94.2042 70.68 94.0242 71.25 93.8942 71.82C94.0042 71.67 94.1142 71.52 94.2042 71.37C94.3042 71.23 94.4042 71.09 94.5242 70.96C95.1642 70.19 95.9042 69.53 96.7442 68.99C97.5842 68.45 98.5242 68.14 99.5642 68.08C99.7442 68.08 99.9242 68.08 100.124 68.1C100.324 68.11 100.514 68.17 100.684 68.28C101.014 68.41 101.194 68.64 101.214 68.98C101.234 69.18 101.214 69.38 101.134 69.58C101.054 69.78 100.984 69.97 100.914 70.14V70.27C100.914 70.27 100.884 70.33 100.884 70.37V70.67H100.854C100.854 70.67 100.814 70.66 100.784 70.64C100.804 70.64 100.814 70.65 100.814 70.67H100.884C100.884 70.67 100.994 70.7 101.084 70.7H101.584C102.134 70.68 102.714 70.58 103.304 70.4C103.944 70.25 104.564 70.07 105.164 69.87C105.764 69.67 106.354 69.45 106.954 69.21C107.174 69.1 107.394 69.01 107.614 68.93C107.834 68.85 108.054 68.76 108.274 68.65C108.364 68.63 108.494 68.57 108.674 68.49C108.694 68.49 108.734 68.47 108.794 68.44C108.854 68.41 108.834 68.41 108.744 68.46C108.854 68.42 108.964 68.41 109.074 68.44C109.184 68.47 109.294 68.52 109.404 68.59L109.414 68.55ZM97.4042 66.5C97.4042 66.5 97.4042 66.51 97.3542 66.53C97.3742 66.51 97.3942 66.5 97.4042 66.5ZM100.404 68.75C100.404 68.75 100.444 68.77 100.474 68.75H100.404ZM100.474 68.75C100.474 68.75 100.514 68.78 100.524 68.78C100.524 68.78 100.524 68.77 100.474 68.75Z" fill="#58595B" stroke="#58595B" stroke-width="0.62" stroke-miterlimit="10"/>
<path d="M133.064 68.1499C133.234 68.2599 133.364 68.3899 133.444 68.5299C133.524 68.6699 133.494 68.8299 133.364 69.0099C133.274 69.0999 133.174 69.1299 133.064 69.1099C132.954 69.0899 132.854 69.0499 132.764 69.0099C132.694 68.9699 132.614 68.8899 132.504 68.7799C132.484 68.7599 132.474 68.7399 132.474 68.7299C132.474 68.7299 132.464 68.6999 132.444 68.6799C132.334 68.6799 132.244 68.6899 132.184 68.7099H131.914C131.734 68.7599 131.604 68.7799 131.514 68.7799C130.804 68.9099 130.104 69.0599 129.414 69.2099C128.714 69.3699 128.014 69.5299 127.314 69.7099C126.414 69.9499 125.514 70.1899 124.634 70.4099C123.754 70.6299 122.844 70.8599 121.914 71.1099C121.034 71.3299 120.154 71.5499 119.284 71.7699C118.414 71.9899 117.534 72.1999 116.654 72.3999C115.964 72.5599 115.294 72.6999 114.614 72.8299C113.944 72.9599 113.264 73.0499 112.574 73.0999C112.154 73.1399 111.734 73.1499 111.314 73.1199C110.894 73.0899 110.474 73.0199 110.054 72.8999C109.674 72.7899 109.314 72.6099 108.964 72.3699C108.614 72.1299 108.344 71.8199 108.174 71.4399C108.044 71.1499 107.984 70.8599 108.004 70.5599C108.024 70.2599 108.094 69.9699 108.204 69.6799C108.314 69.3499 108.464 69.0399 108.654 68.7499C108.844 68.4599 109.054 68.1899 109.304 67.9199C109.504 67.6999 109.734 67.4799 109.994 67.2699C110.264 67.0599 110.534 66.8899 110.824 66.7599C111.114 66.6299 111.414 66.5399 111.714 66.5099C112.024 66.4799 112.334 66.5299 112.644 66.6599C112.824 66.7299 112.994 66.8199 113.154 66.9399C113.324 67.0599 113.424 67.2099 113.474 67.3899C113.544 67.6099 113.494 67.8299 113.344 68.0499C113.164 68.3399 112.934 68.5899 112.644 68.7999C112.354 69.0099 112.084 69.1999 111.814 69.3799C111.374 69.6899 110.904 69.9799 110.424 70.2399C109.934 70.4999 109.444 70.7599 108.934 70.9999V71.1699C108.934 71.1699 108.944 71.1999 108.964 71.1999C109.004 71.3799 109.044 71.4999 109.064 71.5599V71.5899C109.064 71.5899 109.134 71.6699 109.134 71.6899L109.204 71.7599V71.7899C109.204 71.7899 109.244 71.8199 109.254 71.8199C109.264 71.8199 109.284 71.8299 109.304 71.8499V71.8799H109.334L109.434 71.9799C109.434 71.9799 109.474 72.0099 109.504 72.0099C109.524 72.0299 109.544 72.0399 109.554 72.0399C109.564 72.0399 109.584 72.0499 109.604 72.0699C109.624 72.0699 109.644 72.0699 109.654 72.0899C109.664 72.0999 109.684 72.1099 109.704 72.1099L109.734 72.1399L110.034 72.2399H110.064C110.064 72.2399 110.174 72.2699 110.264 72.2699C110.394 72.3099 110.504 72.3399 110.594 72.3399C110.634 72.3599 110.704 72.3699 110.794 72.3699C110.834 72.3699 110.874 72.3799 110.894 72.3999H111.984C112.094 72.3799 112.214 72.3599 112.344 72.3499C112.474 72.3399 112.594 72.3199 112.704 72.2999H112.874C112.874 72.2999 112.994 72.2699 113.104 72.2699C113.194 72.2499 113.344 72.2099 113.564 72.1699C114.334 72.0399 115.104 71.8799 115.864 71.7099C116.624 71.5299 117.394 71.3599 118.164 71.1799C119.094 70.9599 119.994 70.7399 120.884 70.5199C121.764 70.2999 122.664 70.0699 123.564 69.8199C124.404 69.5999 125.234 69.3799 126.064 69.1699C126.894 68.9599 127.724 68.7699 128.564 68.5899C129.134 68.4599 129.714 68.3299 130.284 68.2099C130.854 68.0899 131.434 68.0099 132.004 67.9599C132.184 67.9399 132.364 67.9299 132.554 67.9399C132.744 67.9499 132.914 68.0099 133.074 68.1199L133.064 68.1499ZM109.324 69.6099C109.324 69.6099 109.274 69.6899 109.254 69.7099C109.234 69.7299 109.224 69.7699 109.224 69.8099C109.664 69.5699 110.114 69.3099 110.564 69.0499C111.014 68.7799 111.444 68.4999 111.834 68.1899C111.874 68.1499 111.934 68.0999 112.004 68.0399C112.074 67.9799 112.134 67.9199 112.204 67.8599L112.274 67.7899V67.7599H112.304C112.304 67.7599 112.344 67.6899 112.354 67.6799C112.364 67.6699 112.384 67.6399 112.404 67.5999C112.444 67.5599 112.494 67.4699 112.534 67.3299V67.2999C112.534 67.2999 112.564 67.2799 112.564 67.2299C112.544 67.2099 112.524 67.1999 112.494 67.1999C112.474 67.1999 112.454 67.1899 112.424 67.1699H112.164C112.164 67.1699 112.084 67.1999 111.994 67.1999C111.864 67.2399 111.744 67.2899 111.634 67.3299H111.564V67.3599C111.564 67.3599 111.524 67.3599 111.514 67.3799C111.504 67.3899 111.484 67.3999 111.464 67.3999C111.374 67.4399 111.324 67.4799 111.304 67.4999C111.144 67.5899 111.014 67.6799 110.894 67.7599C110.774 67.8399 110.654 67.9499 110.544 68.0599C110.474 68.1299 110.414 68.1899 110.344 68.2399C110.274 68.2999 110.224 68.3499 110.184 68.3899C110.094 68.4799 110.044 68.5499 110.014 68.5899L109.844 68.7599C109.734 68.8899 109.644 69.0299 109.564 69.1699C109.484 69.3099 109.404 69.4599 109.314 69.6199L109.324 69.6099ZM112.494 67.1999L112.424 67.1699L112.494 67.1999ZM132.564 68.3299C132.564 68.3299 132.534 68.3399 132.534 68.3599C132.554 68.3599 132.564 68.3499 132.564 68.3299Z" fill="#58595B" stroke="#414042" stroke-miterlimit="10"/>
<path d="M133.064 68.1499C133.234 68.2599 133.364 68.3899 133.444 68.5299C133.524 68.6699 133.494 68.8299 133.364 69.0099C133.274 69.0999 133.174 69.1299 133.064 69.1099C132.954 69.0899 132.854 69.0499 132.764 69.0099C132.694 68.9699 132.614 68.8899 132.504 68.7799C132.484 68.7599 132.474 68.7399 132.474 68.7299C132.474 68.7299 132.464 68.6999 132.444 68.6799C132.334 68.6799 132.244 68.6899 132.184 68.7099H131.914C131.734 68.7599 131.604 68.7799 131.514 68.7799C130.804 68.9099 130.104 69.0599 129.414 69.2099C128.714 69.3699 128.014 69.5299 127.314 69.7099C126.414 69.9499 125.514 70.1899 124.634 70.4099C123.754 70.6299 122.844 70.8599 121.914 71.1099C121.034 71.3299 120.154 71.5499 119.284 71.7699C118.414 71.9899 117.534 72.1999 116.654 72.3999C115.964 72.5599 115.294 72.6999 114.614 72.8299C113.944 72.9599 113.264 73.0499 112.574 73.0999C112.154 73.1399 111.734 73.1499 111.314 73.1199C110.894 73.0899 110.474 73.0199 110.054 72.8999C109.674 72.7899 109.314 72.6099 108.964 72.3699C108.614 72.1299 108.344 71.8199 108.174 71.4399C108.044 71.1499 107.984 70.8599 108.004 70.5599C108.024 70.2599 108.094 69.9699 108.204 69.6799C108.314 69.3499 108.464 69.0399 108.654 68.7499C108.844 68.4599 109.054 68.1899 109.304 67.9199C109.504 67.6999 109.734 67.4799 109.994 67.2699C110.264 67.0599 110.534 66.8899 110.824 66.7599C111.114 66.6299 111.414 66.5399 111.714 66.5099C112.024 66.4799 112.334 66.5299 112.644 66.6599C112.824 66.7299 112.994 66.8199 113.154 66.9399C113.324 67.0599 113.424 67.2099 113.474 67.3899C113.544 67.6099 113.494 67.8299 113.344 68.0499C113.164 68.3399 112.934 68.5899 112.644 68.7999C112.354 69.0099 112.084 69.1999 111.814 69.3799C111.374 69.6899 110.904 69.9799 110.424 70.2399C109.934 70.4999 109.444 70.7599 108.934 70.9999V71.1699C108.934 71.1699 108.944 71.1999 108.964 71.1999C109.004 71.3799 109.044 71.4999 109.064 71.5599V71.5899C109.064 71.5899 109.134 71.6699 109.134 71.6899L109.204 71.7599V71.7899C109.204 71.7899 109.244 71.8199 109.254 71.8199C109.264 71.8199 109.284 71.8299 109.304 71.8499V71.8799H109.334L109.434 71.9799C109.434 71.9799 109.474 72.0099 109.504 72.0099C109.524 72.0299 109.544 72.0399 109.554 72.0399C109.564 72.0399 109.584 72.0499 109.604 72.0699C109.624 72.0699 109.644 72.0699 109.654 72.0899C109.664 72.0999 109.684 72.1099 109.704 72.1099L109.734 72.1399L110.034 72.2399H110.064C110.064 72.2399 110.174 72.2699 110.264 72.2699C110.394 72.3099 110.504 72.3399 110.594 72.3399C110.634 72.3599 110.704 72.3699 110.794 72.3699C110.834 72.3699 110.874 72.3799 110.894 72.3999H111.984C112.094 72.3799 112.214 72.3599 112.344 72.3499C112.474 72.3399 112.594 72.3199 112.704 72.2999H112.874C112.874 72.2999 112.994 72.2699 113.104 72.2699C113.194 72.2499 113.344 72.2099 113.564 72.1699C114.334 72.0399 115.104 71.8799 115.864 71.7099C116.624 71.5299 117.394 71.3599 118.164 71.1799C119.094 70.9599 119.994 70.7399 120.884 70.5199C121.764 70.2999 122.664 70.0699 123.564 69.8199C124.404 69.5999 125.234 69.3799 126.064 69.1699C126.894 68.9599 127.724 68.7699 128.564 68.5899C129.134 68.4599 129.714 68.3299 130.284 68.2099C130.854 68.0899 131.434 68.0099 132.004 67.9599C132.184 67.9399 132.364 67.9299 132.554 67.9399C132.744 67.9499 132.914 68.0099 133.074 68.1199L133.064 68.1499ZM109.314 69.6399C109.314 69.6399 109.264 69.7199 109.244 69.7399C109.224 69.7599 109.214 69.7999 109.214 69.8399C109.654 69.5999 110.104 69.3399 110.554 69.0799C111.004 68.8099 111.434 68.5299 111.824 68.2199C111.864 68.1799 111.924 68.1299 111.994 68.0699C112.064 68.0099 112.124 67.9499 112.194 67.8899L112.264 67.8199V67.7899H112.294C112.294 67.7899 112.334 67.7199 112.344 67.7099C112.354 67.6999 112.374 67.6699 112.394 67.6299C112.434 67.5899 112.484 67.4999 112.524 67.3599V67.3299C112.524 67.3299 112.554 67.3099 112.554 67.2599C112.534 67.2399 112.514 67.2299 112.484 67.2299C112.464 67.2299 112.444 67.2199 112.414 67.1999H112.154C112.154 67.1999 112.074 67.2299 111.984 67.2299C111.854 67.2699 111.734 67.3199 111.624 67.3599H111.554V67.3899C111.554 67.3899 111.514 67.3899 111.504 67.4099C111.494 67.4199 111.474 67.4299 111.454 67.4299C111.364 67.4699 111.314 67.5099 111.294 67.5299C111.134 67.6199 111.004 67.7099 110.884 67.7899C110.764 67.8699 110.644 67.9799 110.534 68.0899C110.464 68.1599 110.404 68.2199 110.334 68.2699C110.264 68.3299 110.214 68.3799 110.174 68.4199C110.084 68.5099 110.034 68.5799 110.004 68.6199L109.834 68.7899C109.724 68.9199 109.634 69.0599 109.554 69.1999C109.474 69.3399 109.394 69.4899 109.304 69.6499L109.314 69.6399ZM112.494 67.2199L112.424 67.1899L112.494 67.2199ZM132.564 68.3499C132.564 68.3499 132.534 68.3599 132.534 68.3799C132.554 68.3799 132.564 68.3699 132.564 68.3499Z" fill="#58595B" stroke="#58595B" stroke-width="0.62" stroke-miterlimit="10"/>
<path d="M118.694 102.9H15.7843V84.8202H16.9343V101.75H117.534V76.9502H118.694V102.9Z" fill="#58595B"/>
<path d="M118.694 67.69H117.534V1.15H16.9343V56.61H15.7843V0H118.694V67.69Z" fill="#58595B"/>
<path d="M125.564 0.609932C126.024 0.889932 126.394 1.27993 126.664 1.76993C126.934 2.25993 127.064 2.78993 127.064 3.36993C127.064 3.94993 126.924 4.46993 126.664 4.95993C126.394 5.44993 126.034 5.83993 125.564 6.13993C125.094 6.42993 124.584 6.57993 124.024 6.57993C123.464 6.57993 122.964 6.43993 122.504 6.14993C122.044 5.85993 121.674 5.46993 121.414 4.97993C121.154 4.48993 121.014 3.95993 121.014 3.38993C121.014 2.81993 121.144 2.28993 121.414 1.79993C121.684 1.30993 122.044 0.919932 122.504 0.619932C122.964 0.329932 123.474 0.179932 124.034 0.179932C124.594 0.179932 125.094 0.319932 125.554 0.609932H125.564ZM125.184 5.46993C125.534 5.24993 125.814 4.95993 126.024 4.58993C126.234 4.21993 126.334 3.81993 126.334 3.37993C126.334 2.93993 126.234 2.53993 126.034 2.16993C125.834 1.79993 125.554 1.50993 125.204 1.29993C124.854 1.07993 124.464 0.979932 124.044 0.979932C123.624 0.979932 123.224 1.08993 122.874 1.30993C122.524 1.52993 122.254 1.81993 122.044 2.18993C121.844 2.55993 121.744 2.96993 121.744 3.39993C121.744 3.82993 121.844 4.23993 122.044 4.60993C122.244 4.97993 122.514 5.26993 122.864 5.48993C123.214 5.70993 123.594 5.80993 124.024 5.80993C124.454 5.80993 124.844 5.69993 125.194 5.47993L125.184 5.46993ZM125.184 3.41993C125.094 3.58993 124.974 3.70993 124.804 3.78993L125.404 4.76993H124.574L124.154 3.93993H123.614V4.76993H122.894V1.77993H124.124C124.504 1.77993 124.804 1.86993 125.004 2.04993C125.214 2.22993 125.314 2.48993 125.314 2.81993C125.314 3.04993 125.274 3.23993 125.184 3.40993V3.41993ZM123.614 3.32993H124.124C124.284 3.32993 124.404 3.28993 124.484 3.19993C124.574 3.11993 124.614 2.99993 124.614 2.84993C124.614 2.69993 124.574 2.57993 124.484 2.49993C124.394 2.41993 124.274 2.37993 124.124 2.37993H123.614V3.32993Z" fill="#58595B"/>
</svg>
