<svg width="178" height="39" viewBox="0 0 178 39" fill="none" xmlns="http://www.w3.org/2000/svg">
<path d="M15.84 9.90006C15.08 9.29006 14.33 8.83006 13.58 8.54006C12.82 8.25006 12.09 8.10006 11.39 8.10006C10.49 8.10006 9.76 8.31006 9.2 8.74006C8.63 9.16006 8.35 9.72006 8.35 10.4001C8.35 10.8701 8.49 11.2601 8.77 11.5701C9.05 11.8801 9.42 12.1401 9.88 12.3701C10.34 12.5901 10.86 12.7901 11.44 12.9501C12.02 13.1101 12.59 13.2901 13.16 13.4801C15.42 14.2301 17.08 15.2401 18.13 16.5001C19.18 17.7601 19.7 19.4101 19.7 21.4301C19.7 22.8001 19.47 24.0401 19.01 25.1401C18.55 26.2501 17.88 27.2001 16.99 27.9901C16.11 28.7801 15.02 29.3901 13.74 29.8301C12.45 30.2701 11 30.4801 9.37 30.4801C6 30.4801 2.87 29.4801 0 27.4701L2.97 21.8801C4.01 22.8001 5.03 23.4801 6.05 23.9301C7.06 24.3801 8.07 24.6001 9.06 24.6001C10.19 24.6001 11.03 24.3401 11.59 23.8201C12.14 23.3001 12.42 22.7101 12.42 22.0501C12.42 21.6501 12.35 21.3001 12.21 21.0101C12.07 20.7201 11.83 20.4401 11.5 20.2001C11.17 19.9501 10.74 19.7201 10.21 19.5101C9.68 19.3001 9.04 19.0601 8.28 18.8001C7.38 18.5201 6.51 18.2101 5.65 17.8601C4.79 17.5201 4.02 17.0601 3.35 16.5001C2.68 15.9301 2.13 15.2201 1.72 14.3601C1.31 13.5001 1.1 12.4101 1.1 11.0901C1.1 9.77006 1.32 8.57006 1.75 7.50006C2.19 6.43006 2.8 5.51006 3.59 4.74006C4.38 3.97006 5.35 3.38006 6.49 2.95006C7.63 2.52006 8.91 2.31006 10.33 2.31006C11.65 2.31006 13.03 2.49006 14.47 2.86006C15.91 3.23006 17.29 3.76006 18.61 4.47006L15.85 9.88006L15.84 9.90006Z" fill="#58595B"/>
<path d="M20.5 4.63002C20.5 4.14002 20.59 3.67002 20.78 3.23002C20.97 2.79002 21.23 2.41002 21.56 2.08002C21.89 1.75002 22.27 1.49002 22.71 1.30002C23.15 1.11002 23.61 1.02002 24.11 1.02002C24.61 1.02002 25.07 1.11002 25.51 1.30002C25.95 1.49002 26.33 1.75002 26.66 2.08002C26.99 2.41002 27.25 2.79002 27.44 3.23002C27.63 3.67002 27.72 4.13002 27.72 4.63002C27.72 5.13002 27.63 5.59002 27.44 6.03002C27.25 6.47002 26.99 6.85002 26.66 7.18002C26.33 7.51002 25.95 7.77002 25.51 7.96002C25.07 8.15002 24.61 8.24002 24.11 8.24002C23.61 8.24002 23.15 8.15002 22.71 7.96002C22.27 7.77002 21.89 7.51002 21.56 7.18002C21.23 6.85002 20.97 6.47002 20.78 6.03002C20.59 5.59002 20.5 5.13002 20.5 4.63002ZM27.33 11.6V29.75H20.93V11.6H27.33Z" fill="#58595B"/>
<path d="M29.1999 11.6H35.5999V13.83C37.3399 12.16 39.2999 11.32 41.4699 11.32C44.1599 11.32 46.2099 12.45 47.6199 14.72C49.0599 12.43 51.1099 11.29 53.7699 11.29C54.6199 11.29 55.4199 11.41 56.1699 11.66C56.9199 11.91 57.5699 12.3 58.1199 12.83C58.6699 13.36 59.0899 14.05 59.4099 14.9C59.7299 15.75 59.8899 16.77 59.8899 17.98V29.76H53.4899V20.81C53.4899 19.89 53.4199 19.14 53.2999 18.55C53.1699 17.96 52.9799 17.5 52.7299 17.17C52.4799 16.84 52.1899 16.62 51.8599 16.5C51.5299 16.38 51.1799 16.32 50.7999 16.32C48.7499 16.32 47.7199 17.82 47.7199 20.81V29.76H41.3199V20.81C41.3199 19.89 41.2599 19.13 41.1399 18.53C41.0199 17.93 40.8499 17.45 40.6299 17.1C40.4099 16.75 40.1199 16.51 39.7599 16.38C39.4099 16.25 38.9899 16.19 38.5199 16.19C38.1199 16.19 37.7399 16.25 37.3899 16.37C37.0399 16.49 36.7199 16.72 36.4499 17.06C36.1799 17.4 35.9699 17.87 35.8099 18.47C35.6599 19.07 35.5799 19.86 35.5799 20.82V29.77H29.1799V11.6H29.1999Z" fill="#58595B"/>
<path d="M68.8199 38.8H62.4199V11.6H68.8199V13.62C70.1899 11.9 72.0499 11.04 74.4099 11.04C75.7099 11.04 76.9099 11.29 78.0399 11.8C79.1599 12.31 80.1299 13 80.9599 13.87C81.7899 14.74 82.4299 15.77 82.8899 16.95C83.3499 18.13 83.5799 19.39 83.5799 20.73C83.5799 22.07 83.3499 23.32 82.8899 24.48C82.4299 25.64 81.7899 26.65 80.9799 27.52C80.1699 28.39 79.2099 29.08 78.0999 29.57C76.9899 30.07 75.7899 30.31 74.4899 30.31C72.2299 30.31 70.3399 29.53 68.8299 27.98V38.8H68.8199ZM76.8799 20.73C76.8799 20.16 76.7799 19.63 76.5799 19.12C76.3799 18.61 76.0899 18.17 75.7099 17.79C75.3299 17.41 74.8899 17.11 74.3799 16.89C73.8699 16.67 73.3199 16.55 72.7399 16.55C72.1599 16.55 71.6399 16.66 71.1499 16.87C70.6599 17.08 70.2199 17.38 69.8599 17.75C69.4899 18.13 69.1999 18.57 68.9799 19.08C68.7599 19.59 68.6399 20.12 68.6399 20.69C68.6399 21.26 68.7499 21.79 68.9599 22.28C69.1699 22.77 69.4699 23.21 69.8399 23.57C70.2199 23.94 70.6599 24.23 71.1699 24.45C71.6799 24.67 72.2099 24.79 72.7799 24.79C73.3499 24.79 73.8799 24.68 74.3699 24.47C74.8599 24.26 75.2899 23.96 75.6599 23.59C76.0299 23.21 76.3199 22.78 76.5399 22.28C76.7599 21.78 76.8799 21.27 76.8799 20.72V20.73Z" fill="#58595B"/>
<path d="M91.1 0.389893V29.7499H84.7V0.389893H91.1Z" fill="#58595B"/>
<path d="M98.74 21.7499C98.74 24.5099 100.04 25.8899 102.63 25.8899C104.02 25.8899 105.07 25.3199 105.78 24.1899H111.97C110.72 28.3399 107.6 30.4199 102.6 30.4199C101.07 30.4199 99.66 30.1899 98.39 29.7299C97.12 29.2699 96.03 28.6199 95.12 27.7699C94.21 26.9199 93.51 25.9099 93.02 24.7299C92.53 23.5499 92.28 22.2299 92.28 20.7699C92.28 19.3099 92.52 17.8999 92.99 16.6799C93.46 15.4699 94.13 14.4299 95.01 13.5899C95.88 12.7399 96.94 12.0899 98.18 11.6299C99.42 11.1699 100.82 10.9399 102.37 10.9399C103.92 10.9399 105.28 11.1699 106.51 11.6299C107.74 12.0899 108.77 12.7599 109.62 13.6299C110.47 14.4999 111.12 15.5699 111.57 16.8299C112.02 18.0899 112.24 19.5099 112.24 21.0899V21.7599H98.76L98.74 21.7499ZM106.24 18.0399C106.03 17.1399 105.59 16.4299 104.93 15.8799C104.27 15.3399 103.47 15.0699 102.52 15.0699C101.53 15.0699 100.72 15.3299 100.1 15.8499C99.48 16.3699 99.08 17.0999 98.92 18.0399H106.24Z" fill="#58595B"/>
<path d="M130.4 3.08008V23.8701H138.71V29.7401H123.47V3.08008H130.4Z" fill="#58595B"/>
<path d="M138.74 4.63002C138.74 4.14002 138.83 3.67002 139.02 3.23002C139.21 2.79002 139.47 2.41002 139.8 2.08002C140.13 1.75002 140.51 1.49002 140.95 1.30002C141.39 1.11002 141.85 1.02002 142.35 1.02002C142.85 1.02002 143.31 1.11002 143.75 1.30002C144.19 1.49002 144.57 1.75002 144.9 2.08002C145.23 2.41002 145.49 2.79002 145.68 3.23002C145.87 3.67002 145.96 4.13002 145.96 4.63002C145.96 5.13002 145.87 5.59002 145.68 6.03002C145.49 6.47002 145.23 6.85002 144.9 7.18002C144.57 7.51002 144.19 7.77002 143.75 7.96002C143.31 8.15002 142.85 8.24002 142.35 8.24002C141.85 8.24002 141.39 8.15002 140.95 7.96002C140.51 7.77002 140.13 7.51002 139.8 7.18002C139.47 6.85002 139.21 6.47002 139.02 6.03002C138.83 5.59002 138.74 5.13002 138.74 4.63002ZM145.57 11.6V29.75H139.17V11.6H145.57Z" fill="#58595B"/>
<path d="M153.77 16.94V29.74H147.37V16.94H145.07V11.6H147.37V8.88C147.37 7.37 147.51 6.17 147.79 5.27C148.03 4.52 148.4 3.81 148.92 3.17C149.44 2.52 150.05 1.96 150.74 1.49C151.43 1.02 152.18 0.65 152.99 0.39C153.79 0.13 154.58 0 155.36 0C155.9 0 156.4 0.06 156.86 0.18C157.32 0.3 157.79 0.46 158.26 0.67V6.26C157.84 6.05 157.44 5.89 157.08 5.78C156.71 5.67 156.33 5.62 155.93 5.62C155.67 5.62 155.4 5.66 155.13 5.74C154.86 5.82 154.6 5.99 154.37 6.25C154.14 6.51 153.98 6.88 153.89 7.36C153.81 7.84 153.77 8.5 153.77 9.32V11.58H158.26V16.92H153.77V16.94Z" fill="#58595B"/>
<path d="M164.31 21.7499C164.31 24.5099 165.61 25.8899 168.2 25.8899C169.59 25.8899 170.64 25.3199 171.35 24.1899H177.54C176.29 28.3399 173.17 30.4199 168.17 30.4199C166.64 30.4199 165.23 30.1899 163.96 29.7299C162.69 29.2699 161.6 28.6199 160.69 27.7699C159.78 26.9199 159.08 25.9099 158.59 24.7299C158.1 23.5499 157.85 22.2299 157.85 20.7699C157.85 19.3099 158.09 17.8999 158.56 16.6799C159.03 15.4699 159.7 14.4299 160.58 13.5899C161.45 12.7399 162.51 12.0899 163.75 11.6299C164.99 11.1699 166.39 10.9399 167.94 10.9399C169.49 10.9399 170.85 11.1699 172.08 11.6299C173.31 12.0899 174.34 12.7599 175.19 13.6299C176.04 14.4999 176.69 15.5699 177.14 16.8299C177.59 18.0899 177.81 19.5099 177.81 21.0899V21.7599H164.33L164.31 21.7499ZM171.81 18.0399C171.6 17.1399 171.16 16.4299 170.5 15.8799C169.84 15.3399 169.04 15.0699 168.09 15.0699C167.1 15.0699 166.29 15.3299 165.67 15.8499C165.05 16.3699 164.65 17.0999 164.49 18.0399H171.81Z" fill="#58595B"/>
</svg>
