<svg width="160" height="51" viewBox="0 0 160 51" fill="none" xmlns="http://www.w3.org/2000/svg">
<path d="M20.5925 24.0568C23.3225 23.8368 25.9225 23.6368 28.5125 23.4268C28.5125 23.3668 28.5125 23.3068 28.5125 23.2468C28.3325 23.1568 28.1725 23.0468 27.9825 22.9668C26.3425 22.2568 24.7025 21.5368 23.0425 20.8568C21.9525 20.4068 21.9425 20.4268 21.5125 21.5368C21.2125 22.3268 20.9225 23.1168 20.5725 24.0568H20.5925ZM66.7725 26.5968C66.9025 26.6468 66.9525 26.6868 67.0025 26.6868C67.1525 26.6868 67.3025 26.6868 67.4425 26.6668C69.5325 26.4068 71.1525 25.3868 72.2825 23.6168C73.0625 22.3868 73.4525 21.0568 73.0725 19.6068C72.8125 18.5868 71.9625 18.1668 71.0725 18.7168C70.4225 19.1168 69.8125 19.6968 69.3625 20.3168C68.2925 21.7968 67.6725 23.5068 67.1425 25.2468C67.0025 25.6968 66.8925 26.1568 66.7625 26.6068L66.7725 26.5968ZM17.4125 19.0368C17.0625 18.9468 16.8125 18.8868 16.5625 18.8268C13.7025 18.1568 10.8425 18.1168 8.00246 18.8668C7.18246 19.0768 6.35246 19.4568 5.66246 19.9468C4.63246 20.6768 4.59246 21.9068 5.53246 22.7568C5.98246 23.1668 6.54246 23.5168 7.12246 23.7368C9.50246 24.6468 11.9925 24.4368 14.4725 24.3068C14.6325 24.3068 14.8225 24.0568 14.9125 23.8868C15.2325 23.3068 15.5125 22.7068 15.8225 22.1068C16.3325 21.1068 16.8525 20.1168 17.4125 19.0468V19.0368ZM33.2925 4.34676C33.2925 4.34676 33.2025 4.28676 33.1525 4.25676C32.9625 4.35676 32.7625 4.45676 32.5825 4.56676C30.8725 5.62676 29.5325 7.07676 28.3225 8.65676C25.9625 11.7568 24.2225 15.1968 22.6425 18.7368C22.4725 19.1068 22.6025 19.2568 22.9225 19.4068C24.3425 20.0768 25.7625 20.7568 27.1725 21.4468C28.1125 21.9068 29.0325 22.3968 30.0425 22.9168C31.1325 16.6768 32.2025 10.5168 33.2825 4.35676L33.2925 4.34676ZM38.5625 21.9768C39.4225 21.4968 40.1625 21.0468 40.9325 20.6568C41.3725 20.4368 41.8525 20.2768 42.3325 20.1468C44.3625 19.5968 45.8925 20.4268 47.1625 21.9468C47.3025 22.1168 47.4225 22.2968 47.5525 22.4568C48.4125 21.8768 49.2125 21.2668 50.0725 20.7768C51.2925 20.0868 52.5925 19.5568 54.0325 19.7968C56.5125 20.1968 58.4925 22.8868 58.0925 25.3968C57.7325 27.6768 57.2525 29.9368 56.8425 32.2168C56.6925 33.0668 56.5225 33.9268 56.4825 34.7868C56.4225 35.9468 57.1825 36.5568 58.3425 36.3868C59.1025 36.2768 59.6325 35.7868 60.1725 35.3068C60.3125 35.1868 60.4125 35.0268 60.5425 34.8968C61.2325 34.2268 61.4625 33.5568 61.0625 32.5568C60.4425 30.9868 60.7125 29.3068 60.9525 27.6768C61.3625 24.8668 62.1825 22.1868 63.8525 19.8468C66.2025 16.5468 69.7525 15.6768 73.1525 16.7968C74.6225 17.2768 75.4625 18.3468 75.6025 19.9068C75.8325 22.4368 74.7625 24.3968 72.8725 25.9668C71.1425 27.4068 69.1125 28.2368 66.9025 28.5768C66.4325 28.6468 66.2625 28.8368 66.2725 29.2768C66.2725 29.9068 66.2025 30.5368 66.2525 31.1568C66.4225 32.9668 67.9225 34.0868 69.8425 33.8468C71.2725 33.6768 72.4325 32.9068 73.5425 32.0568C74.7525 31.1268 75.7025 29.9568 76.3925 28.6268C76.7325 27.9768 76.6825 27.1168 76.7825 26.3468C77.2025 23.0268 77.6125 19.7068 78.0525 16.3868C78.0725 16.2268 78.2725 15.9668 78.4125 15.9468C80.1425 15.7868 81.8725 15.6568 83.6125 15.5168C83.6825 15.5168 83.7525 15.5468 83.8825 15.5668C83.8225 16.1368 83.7625 16.6968 83.6825 17.4068C83.9325 17.2068 84.0925 17.0968 84.2325 16.9768C85.3925 16.0068 86.6625 15.2868 88.2025 15.1568C89.9925 14.9968 91.2525 15.9368 91.3325 17.5068C91.4225 19.2968 90.1125 20.7968 88.4225 20.8468C87.7925 20.8668 87.3125 20.6168 87.0425 20.0168C86.9625 19.8368 86.8925 19.6368 86.8325 19.4468C86.5125 18.3368 86.1825 18.1368 85.1125 18.5668C84.0825 18.9868 83.3525 19.6068 83.2125 20.8768C82.6625 25.6868 82.0025 30.4868 81.4025 35.2968C81.3525 35.7068 81.2025 35.8468 80.7825 35.8768C79.2525 35.9768 77.7225 36.1168 76.1925 36.2468C75.9925 36.2668 75.8025 36.2468 75.5225 36.2468C75.7025 34.8168 75.8725 33.4368 76.0525 32.0568C76.0125 32.0268 75.9725 32.0068 75.9325 31.9768C75.8025 32.1068 75.6625 32.2268 75.5425 32.3568C73.6925 34.3868 71.5325 35.9168 68.7925 36.4768C66.7525 36.8968 64.7725 36.8068 63.0125 35.4968C62.7325 35.2868 62.4825 35.0568 62.1825 34.8068C61.7825 35.2668 61.3925 35.7068 61.0125 36.1568C59.9825 37.3768 58.8725 38.5268 57.4325 39.2568C55.6725 40.1468 53.9025 39.9368 52.2525 38.9468C51.1925 38.3068 50.7625 37.2268 50.6525 36.0368C50.4925 34.3468 50.9525 32.7368 51.2525 31.0968C51.5725 29.3468 51.9125 27.6068 52.2025 25.8568C52.2825 25.4068 52.2525 24.9268 52.1825 24.4768C51.9925 23.3368 51.2025 22.7468 50.0625 22.8568C49.7325 22.8868 49.4025 22.9468 49.0925 23.0568C48.1025 23.4168 48.2125 23.4268 48.2225 24.4668C48.2325 25.5768 48.0825 26.7068 47.8925 27.8168C47.3625 30.7968 46.7825 33.7768 46.2125 36.7568C46.0325 37.6968 45.8525 38.6468 45.6525 39.5868C45.6225 39.7468 45.4325 39.9868 45.3125 39.9868C43.4825 40.0168 41.6625 40.0068 39.7725 40.0068C39.7725 39.9268 39.7725 39.7768 39.8125 39.6268C40.6525 35.1368 41.5125 30.6568 42.3325 26.1668C42.4325 25.6368 42.3725 25.0568 42.2625 24.5268C42.0625 23.5668 41.2825 23.0368 40.3025 23.0868C40.0425 23.1068 39.7925 23.1468 39.5425 23.2068C38.7225 23.4068 38.2525 23.8168 38.1025 24.7568C37.2825 29.8468 36.3825 34.9268 35.5025 40.0068C35.3325 40.9868 35.1425 41.9668 34.9825 42.9568C34.9325 43.2468 34.8425 43.4168 34.5025 43.4368C32.0425 43.5268 29.5925 43.6368 27.1325 43.7368C26.9525 43.7368 26.7725 43.7168 26.5125 43.7068C27.5625 37.5868 28.6125 31.5368 29.6725 25.3868C29.0625 25.4468 28.5025 25.5068 27.9425 25.5668C25.4425 25.8368 22.9425 26.1368 20.4425 26.3868C19.9125 26.4368 19.6725 26.6368 19.5225 27.1268C17.8425 32.5768 16.4825 38.1068 15.9725 43.8068C15.8525 45.1068 15.8825 46.4268 15.8825 47.7368C15.8825 48.7268 16.0325 49.6968 16.7325 50.4868C16.6425 50.5568 16.6025 50.6068 16.5625 50.6168C15.0025 50.6168 13.4525 50.6068 11.9625 50.0768C10.5325 49.5668 9.63246 48.5468 9.19246 47.1168C8.59246 45.1768 8.69246 43.2068 9.00246 41.2368C9.75246 36.5068 11.4025 32.0568 13.2525 27.6668C13.3325 27.4868 13.4025 27.3068 13.4925 27.0768C12.8225 27.0768 12.2225 27.0468 11.6225 27.0768C9.08246 27.2268 6.55246 27.1568 4.10246 26.3468C2.87246 25.9368 1.75246 25.3568 0.902458 24.3368C-0.407542 22.7768 -0.277542 20.6368 1.20246 19.2468C2.31246 18.1968 3.68246 17.6468 5.13246 17.2868C9.35246 16.2268 13.5625 16.3868 17.7425 17.5368C18.1525 17.6468 18.3525 17.5868 18.5825 17.2168C20.9325 13.3068 23.5025 9.56676 26.6725 6.26676C28.7725 4.08676 31.0625 2.13676 33.8725 0.896756C36.4825 -0.253244 39.1525 -0.203244 41.8525 0.516756C42.3525 0.646756 42.3025 0.946756 42.2325 1.31676C41.2725 6.72676 40.3125 12.1268 39.3525 17.5368C39.0925 18.9868 38.8525 20.4368 38.5825 21.9768" fill="#58595B"/>
<path d="M111.262 27.3867C111.292 27.8367 111.292 28.3167 111.352 28.7867C111.502 29.8867 112.212 30.5667 113.302 30.7467C114.782 30.9867 115.732 30.2367 116.452 29.0667C117.502 27.3667 117.942 25.4667 118.292 23.5267C118.342 23.2567 118.242 23.1467 117.972 23.0767C117.112 22.8467 116.722 22.3067 116.712 21.4167C116.712 20.2367 117.172 19.3167 118.162 18.6467C118.332 18.5367 118.472 18.2367 118.462 18.0367C118.352 16.6867 117.372 16.0667 116.072 16.5067C115.072 16.8467 114.392 17.5767 113.862 18.4367C112.182 21.1667 111.562 24.2067 111.252 27.3767L111.262 27.3867ZM128.142 27.9167C128.142 28.1767 128.122 28.4367 128.142 28.6967C128.222 29.6867 128.522 30.5567 129.562 30.9367C130.682 31.3467 131.722 31.2367 132.572 30.3367C132.962 29.9267 133.302 29.4567 133.582 28.9567C134.432 27.3967 134.842 25.6967 135.142 23.9567C135.202 23.6167 135.092 23.5067 134.782 23.4167C134.022 23.1967 133.622 22.7067 133.582 21.9367C133.522 20.7067 133.962 19.6967 135.032 19.0067C135.162 18.9267 135.332 18.8067 135.362 18.6767C135.552 17.9067 134.832 16.8267 134.042 16.7867C133.512 16.7667 132.932 16.8667 132.452 17.0967C131.572 17.4967 131.002 18.2867 130.532 19.1167C128.992 21.8467 128.382 24.8267 128.152 27.9167H128.142ZM150.512 7.16675C149.432 11.7667 148.362 16.2867 147.302 20.8067C147.342 20.8267 147.382 20.8567 147.412 20.8767C148.232 20.2567 149.052 19.6367 149.872 19.0267C151.362 17.9067 152.862 16.7967 154.352 15.6667C154.752 15.3667 155.172 15.2267 155.682 15.2567C156.642 15.3067 157.602 15.2967 158.562 15.3167C158.742 15.3167 158.912 15.3367 159.122 15.4667C156.612 17.0967 154.092 18.7167 151.492 20.4067C151.662 20.4667 151.722 20.5067 151.782 20.5067C154.342 20.2167 157.482 23.5967 156.552 26.7267C156.232 27.8067 155.992 28.9067 155.732 30.0067C155.442 31.2367 155.862 31.7567 157.112 31.7867C157.422 31.7867 157.732 31.7867 158.052 31.7867C157.872 33.1967 156.522 35.1267 154.882 35.2667C154.282 35.3167 153.652 35.3367 153.062 35.2267C150.952 34.8667 149.762 33.2067 149.922 30.7767C149.992 29.7567 150.292 28.7467 150.432 27.7267C150.552 26.8767 150.692 25.9967 150.622 25.1567C150.522 23.9567 149.712 23.3867 148.512 23.4967C148.222 23.5267 147.922 23.5867 147.642 23.6767C146.902 23.9067 146.422 24.2767 146.232 25.1567C145.562 28.3067 144.762 31.4167 144.032 34.5567C143.932 34.9867 143.772 35.1267 143.332 35.1067C141.822 35.0567 140.302 35.0367 138.782 35.0067C138.042 34.9867 138.052 34.9867 138.222 34.2967C139.132 30.4867 140.032 26.6667 140.942 22.8567C140.992 22.6467 141.032 22.4367 141.092 22.1067C140.522 22.3467 140.072 22.6167 139.582 22.7067C138.492 22.9067 138.132 23.4967 137.972 24.5967C137.592 27.1867 136.662 29.5967 135.032 31.6967C132.782 34.6067 129.512 35.6967 126.122 34.6567C124.432 34.1367 123.402 33.0067 122.992 31.3067C122.522 29.3867 122.672 27.4467 122.932 25.5167C123.092 24.3767 123.362 23.2467 123.582 22.0567C122.902 22.2867 122.222 22.4967 121.572 22.7767C121.422 22.8467 121.322 23.1567 121.292 23.3767C120.962 25.5267 120.412 27.6167 119.352 29.5367C118.052 31.8767 116.342 33.8067 113.632 34.4467C111.482 34.9467 109.352 34.8067 107.522 33.3467C106.592 32.5967 106.252 31.5167 106.012 30.3967C105.972 30.2067 105.932 30.0067 105.912 29.8867C105.402 30.3467 104.882 30.8167 104.372 31.2867C102.002 33.4867 99.1524 34.3167 95.9924 34.0767C93.2724 33.8767 91.6224 32.3867 91.2824 29.6167C90.7624 25.3967 91.5224 21.3867 93.9624 17.8267C95.8424 15.0867 98.5724 13.9367 101.842 14.0067C102.922 14.0267 103.982 14.1667 104.952 14.7167C106.122 15.3767 106.532 16.9067 105.872 18.0667C105.502 18.0167 105.142 17.9467 104.782 17.9367C104.442 17.9367 104.092 18.0067 103.682 18.0567C103.722 17.8167 103.752 17.6167 103.792 17.4067C103.992 16.1467 103.292 15.4467 102.032 15.6267C101.022 15.7767 100.272 16.3567 99.6524 17.1267C98.1624 18.9567 97.4424 21.1267 96.9624 23.3867C96.6124 25.0567 96.4424 26.7567 96.7724 28.4567C97.0624 29.9867 97.9524 30.7267 99.5124 30.7467C101.362 30.7667 102.962 30.0667 104.452 29.0167C105.412 28.3467 105.932 27.6067 105.982 26.3267C106.102 23.5067 106.802 20.7967 108.412 18.4167C110.512 15.2967 113.502 13.8867 117.232 14.0867C119.562 14.2167 121.032 15.7367 121.402 18.2367C121.472 18.7067 121.522 19.1967 121.532 19.6667C121.532 20.0267 121.722 20.1967 122.022 20.3067C123.062 20.6767 124.352 20.2467 124.902 19.3167C126.702 16.2867 129.352 14.6567 132.862 14.4167C133.982 14.3367 135.072 14.4667 136.082 15.0267C137.162 15.6267 137.762 16.5767 138.042 17.7367C138.222 18.4667 138.302 19.2267 138.372 19.9767C138.402 20.3767 138.562 20.5867 138.932 20.6867C139.782 20.9067 140.592 20.7267 141.342 20.3267C141.502 20.2367 141.612 19.9767 141.652 19.7767C142.572 15.9667 143.472 12.1467 144.362 8.33675C144.442 7.98675 144.542 7.77675 144.942 7.73675C146.672 7.55675 148.402 7.35675 150.122 7.16675C150.212 7.16675 150.302 7.17675 150.482 7.18675" fill="#58595B"/>
<path d="M158.183 40.9569C111.393 38.4669 65.0126 42.3069 18.8625 50.0869C19.1725 49.9969 19.4925 49.9069 19.8025 49.8169C20.1425 49.7269 20.4825 49.6269 20.8225 49.5469C26.1225 48.3369 31.4025 47.0269 36.7325 45.9569C43.0925 44.6869 49.4825 43.5069 55.8925 42.5169C62.2625 41.5269 68.6726 40.7069 75.0826 40.0169C92.4625 38.1469 109.903 37.4969 127.373 38.1969C133.653 38.4469 139.923 38.9169 146.193 39.4469C150.133 39.7769 154.043 40.3969 157.973 40.8869C158.043 40.8869 158.113 40.9269 158.183 40.9469" fill="#58595B"/>
</svg>
