<svg version="1.2" xmlns="http://www.w3.org/2000/svg" viewBox="0 0 129 86" width="129" height="86">
	<title>isleep-logo-svg</title>
	<style>
		.s0 { fill: #575756 } 
		.s1 { fill: #3c3c3b } 
		.s2 { fill: #ffffff } 
	</style>
	<path id="Layer" class="s0" d="m120.8 38.9c0.2-0.1 0.4-0.1 0.6 0-0.1 0.2-0.3 0.1-0.5 0.1-2.6 0.8-5.3 1.3-7.9 1.9q-5.1 1.1-10.2 1.8-4.3 0.6-8.7 0.9c-2.9 0.2-5.9 0.2-8.8 0.1q-4.1-0.1-8.1-0.6c-2.5-0.2-4.9-0.5-7.4-0.7-2.4-0.3-4.9-0.5-7.4-0.8q-3-0.3-6-0.6-3.6-0.3-7.1-0.6-2.7-0.2-5.3-0.4c-5.8-0.3-11.7-0.6-17.5-0.4-4.2 0.1-8.4 0.3-12.6 0.7-4.6 0.5-9.1 1.2-13.5 2.5-0.2 0.1-0.3 0.2-0.4 0l0.3-0.1c2.2-1.3 4.7-2.1 7.2-2.8 4.5-1.4 9.1-2.2 13.7-2.8 3.5-0.4 7-0.6 10.5-0.7q4.5-0.2 9.1-0.1c3.6 0.1 7.3 0.2 10.9 0.6 3.5 0.4 6.9 0.6 10.3 0.9 3.1 0.3 6.1 0.8 9.2 1.2 2.9 0.3 5.8 0.6 8.7 1 4.2 0.6 8.3 0.9 12.5 1 2.8 0.1 5.5-0.1 8.2-0.3q2.6-0.1 5.1-0.3 3.6-0.3 7.1-0.7c2.7-0.3 5.3-0.5 8-0.8zm-13.7 35.7v0.9q0 4.8 0 9.5c0 0.5-0.1 0.8-0.7 0.8q-3.2-0.1-6.3 0c-0.6 0-0.7-0.2-0.7-0.7q0-14.7 0-29.4c0-0.6 0.2-0.8 0.7-0.8q3.2 0.1 6.3 0c0.6 0 0.7 0.3 0.7 0.8 0 0.5-0.2 1.2 0.1 1.4 0.4 0.2 0.7-0.5 1.1-0.8 2.1-1.8 4.5-2 7-1.4 4 1.1 6.1 4 6.9 7.8 0.7 3.1 0.5 6.1-0.7 9.1-2.1 5-8.7 7.1-13 4-0.4-0.4-0.7-0.9-1.4-1.2zm-92.1-8.1c2.1 1.8 4.5 3 7 3.9 1.3 0.4 2.6 0.5 3.9 0.4 1-0.1 1.8-0.8 1.9-1.6 0.2-0.9-0.2-1.8-1.1-2.2-1.3-0.7-2.7-1.1-4.1-1.5-2.1-0.7-4.3-1.2-6.2-2.7-3.9-3-3.3-9.4 0.1-12.3 2.6-2.2 5.7-2.7 9-2.6q5 0.1 9.3 2.5c1.6 0.9 1.4 0.5 0.7 2.1-0.6 1.5-1.4 2.9-2 4.4-0.2 0.5-0.5 0.6-0.9 0.3-2.2-1.2-4.4-2.2-6.9-2.7-0.8-0.1-1.5-0.1-2.3 0-0.6 0-1.1 0.4-1.4 1.1q-0.3 0.9 0.4 1.7c0.5 0.7 1.3 0.9 2.1 1.2 2.1 0.9 4.4 1.3 6.5 2.3 3.7 1.7 5.2 4.2 5 8.4-0.1 3.2-2.3 6.1-5.6 7.3-4.4 1.5-8.7 1-12.9-0.5-1.9-0.7-3.6-1.7-5.1-2.9-0.3-0.2-0.4-0.3-0.2-0.7 0.9-1.9 1.8-3.9 2.8-5.9zm67.6 1.3c-0.7 0-0.8 0.3-0.5 0.8 1 2.4 3.6 3.3 6.2 2.2 0.7-0.3 1.3-0.7 1.8-1.2 0.4-0.4 0.6-0.4 0.9 0q1.6 1.7 3.2 3.3c0.3 0.3 0.3 0.5 0 0.8q-2.3 2.4-5.6 3.1c-2.7 0.7-5.5 0.6-8.1-0.5-4.3-1.7-6.2-5.1-6.4-9.5-0.2-2.6 0.3-5.2 1.7-7.4 2-3.1 4.9-4.5 8.4-4.8 3.2-0.1 6.1 0.5 8.4 2.8 2 1.8 2.9 4.3 3.2 6.9q0.2 1.4 0.2 2.9c0 0.5-0.2 0.7-0.7 0.7-2.1-0.1-4.3-0.1-6.4-0.1-2.1 0-4.2 0.1-6.3 0zm-17.3 0c-2.1 0-4.2 0-6.3 0-0.7 0-0.7 0.2-0.5 0.8 1 2.2 3.4 3.2 5.8 2.3q1.3-0.4 2.3-1.4c0.3-0.3 0.6-0.3 0.9 0q1.5 1.7 3.1 3.3c0.4 0.4 0.4 0.6 0 0.9-1.7 1.8-3.9 2.9-6.4 3.3-2.7 0.4-5.3 0.2-7.8-0.9-3.1-1.4-4.9-3.9-5.6-7.2-0.6-3-0.4-6 1-8.7 1.9-3.6 5-5.3 9-5.6 3.2-0.2 6.2 0.5 8.5 3 1.9 1.9 2.8 4.3 3 6.9 0.1 0.9 0.3 1.8 0.2 2.7-0.1 0.5-0.2 0.6-0.7 0.6q-3.2 0-6.4 0zm-18.2-5.9q-0.1 7.1 0 14.2c0 0.7-0.2 0.9-0.9 0.9q-3.1-0.1-6.2 0c-0.5 0-0.6-0.2-0.6-0.7q0-14.4 0-28.8c0-0.6 0.2-0.7 0.7-0.7q3.1 0.1 6.2 0c0.6 0 0.8 0.2 0.8 0.8q0 7.2 0 14.3zm-18.5-31.6c0.6 0 1.3 0 1.9-0.1 1.4-0.2 2.4-1.1 3.1-2.4 0.6-1 1-2.2 1.3-3.3 0.9-2.7 2.9-3.9 5.7-3.6 2.9 0.3 5.5 1.5 8.1 2.8 2.7 1.4 5.4 2.9 8 4.5 2.8 1.6 5.7 1.9 8.7 0.9 3.4-1 6.6-2 10-3 3-0.9 6-1.4 9.2-1.5 4.6 0 8.8 1.4 12.7 3.8 2.8 1.7 5.6 3.6 8.7 4.8 3.6 1.4 7.3 1.9 11 1.6 0.8 0 1.7-0.1 2.5-0.1-1 0.4-2.1 0.6-3.2 0.7-5.9 0.9-11.5-0.3-16.7-3.3-2.4-1.3-4.9-2.7-7.5-3.7-4.6-1.6-9.2-1.3-13.8-0.2-3.4 0.7-6.6 2-10 3-1.9 0.6-3.9 1.1-6 1.2-1.9 0.1-3.7-0.3-5.3-1.2-3.2-1.7-6.1-3.6-9.2-5.4-2.4-1.4-4.8-2.8-7.6-3.2-1.9-0.4-3.2 0.3-4 2.1-0.7 1.5-1.4 3-2.5 4.2-1.2 1.5-3.3 2.1-5.1 1.4zm-19.5 35.7c0 3.3 0 6.7 0 10.1 0 0.7-0.2 0.9-0.9 0.9q-3.1-0.1-6.2 0c-0.5 0-0.8-0.1-0.8-0.7q0.1-10.3 0-20.7c0-0.5 0.2-0.7 0.7-0.7q3.2 0.1 6.5 0c0.6 0 0.7 0.3 0.7 0.8q0 5.1 0 10.3zm-3.9-43.2c1.8-2.3 4.6-3 7.4-2 1.6 0.7 3 1.7 4.2 2.9 2 2 3.8 4.1 5.8 6 3.8 3.8 7.4 4.4 12.3 2.4 0.9-0.4 1.7-0.8 2.6-1.1-1.8 1.9-3.9 3.2-6.4 3.9-3.8 0.9-6.9-0.4-9.8-2.7-2.1-1.8-3.9-4-5.8-6-1-1-2.1-2-3.3-2.7-2.6-1.4-4.9-0.8-6.8 1.7q-1.7 2.3-2.8 4.9c-0.2 0.4-0.3 0.7-0.6 1.3 0.4-3.3 1.2-6.2 3.2-8.6zm3.9 25.8c0.2 2.7-2 4.3-3.9 4.2-2.4-0.1-4.1-1.7-4.1-4.2 0-2.6 1.9-4.3 4.1-4.2 2.4 0.1 3.9 1.6 3.9 4.2zm119.4 1.6c0 1.7-1.3 3-2.9 3-1.5 0-2.7-1.3-2.8-2.9 0-1.7 1.3-3 2.9-3 1.5 0 2.8 1.3 2.8 2.9z"/>
	<path id="Layer" fill-rule="evenodd" class="s0" d="m107.1 74.6v0.9q0 4.8 0 9.5c0 0.6-0.1 0.8-0.8 0.8q-3.1-0.1-6.3 0c-0.5 0-0.6-0.2-0.6-0.7q0-14.7 0-29.5c0-0.5 0.2-0.7 0.7-0.7q3.1 0.1 6.3 0c0.6 0 0.7 0.3 0.7 0.8 0 0.5-0.3 1.2 0.1 1.4 0.4 0.2 0.7-0.5 1.1-0.8 2.1-1.8 4.5-2 7-1.4 4 1.1 6 4 6.9 7.8 0.7 3.1 0.5 6.1-0.8 9.1-2.1 5-8.6 7.1-12.9 4-0.5-0.4-0.8-0.9-1.4-1.2zm0-8.8c0 1.2 0.2 2.3 0.8 3.3 1.4 2.1 4.3 2.3 5.8 0.3 1.4-1.8 1.4-5.3 0-7.1-1.4-1.9-4.2-1.9-5.6 0-0.8 1-1 2.2-1 3.5z"/>
	<path id="Layer" class="s0" d="m15 66.5c2.1 1.9 4.5 3.1 7.1 3.9 1.2 0.4 2.5 0.6 3.8 0.4 1-0.1 1.8-0.8 2-1.5 0.1-1-0.3-1.8-1.2-2.3-1.3-0.7-2.7-1-4.1-1.5-2.1-0.6-4.3-1.2-6.2-2.6-3.8-3-3.3-9.5 0.1-12.3 2.6-2.2 5.8-2.8 9.1-2.7 3.2 0.1 6.3 0.9 9.2 2.5 1.7 0.9 1.4 0.6 0.7 2.1-0.6 1.5-1.3 3-2 4.5-0.2 0.5-0.4 0.5-0.9 0.3-2.2-1.3-4.4-2.2-6.9-2.7-0.7-0.2-1.5-0.1-2.2-0.1-0.7 0.1-1.2 0.5-1.4 1.1q-0.4 1 0.3 1.8c0.5 0.6 1.3 0.9 2.1 1.2 2.2 0.8 4.5 1.3 6.6 2.3 3.7 1.7 5.2 4.2 5 8.4-0.2 3.2-2.4 6-5.7 7.2-4.4 1.6-8.7 1.1-12.9-0.5q-2.8-1-5.1-2.9c-0.2-0.2-0.4-0.3-0.2-0.6 0.9-2 1.9-3.9 2.8-6z"/>
	<path id="Layer" fill-rule="evenodd" class="s0" d="m88.8 67.9c-2.1 0-4.2 0-6.3 0-0.7-0.1-0.7 0.2-0.5 0.8 1.1 2.3 3.7 3.2 6.3 2.1q1-0.5 1.8-1.2c0.4-0.4 0.6-0.3 0.9 0q1.6 1.7 3.2 3.3c0.3 0.3 0.3 0.5 0 0.8q-2.4 2.4-5.6 3.1c-2.8 0.7-5.5 0.7-8.2-0.4-4.2-1.8-6.1-5.1-6.4-9.5-0.2-2.7 0.3-5.3 1.8-7.5 2-3.1 4.9-4.5 8.4-4.7 3.1-0.2 6.1 0.4 8.4 2.7 2 1.9 2.9 4.3 3.2 6.9q0.2 1.5 0.2 2.9c0 0.5-0.2 0.7-0.7 0.7-2.1-0.1-4.3 0-6.5 0zm-1-3.9c0.3 0 0.5-0.1 0.5-0.5-0.1-2.4-2-3.8-3.8-3.3-1.4 0.3-2.7 2-2.8 3.4 0 0.4 0.2 0.4 0.5 0.4q1.4 0 2.8 0 1.4 0 2.8 0z"/>
	<path id="Layer" fill-rule="evenodd" class="s0" d="m65.3 67.9c-2.1 0-4.2 0-6.3 0-0.7 0-0.7 0.2-0.5 0.8 1 2.2 3.4 3.2 5.8 2.3 0.8-0.4 1.6-0.8 2.3-1.4 0.3-0.3 0.6-0.4 0.9 0q1.5 1.6 3.1 3.2c0.4 0.4 0.4 0.6 0 1-1.8 1.8-3.9 2.8-6.4 3.2-2.7 0.5-5.3 0.3-7.8-0.9-3.1-1.4-4.9-3.8-5.6-7.1-0.6-3-0.4-6 1-8.8 1.9-3.6 5-5.3 9-5.5 3.2-0.2 6.2 0.5 8.5 2.9 1.9 1.9 2.8 4.3 3 6.9 0.1 0.9 0.3 1.9 0.2 2.8-0.1 0.5-0.2 0.6-0.7 0.6q-3.2 0-6.4 0zm-3.9-3.9q1.4 0 2.8 0c0.4 0 0.5-0.2 0.5-0.6 0-1.3-1-2.7-2.3-3.1-2.3-0.7-3.9 1.3-4.3 3.3 0 0.4 0.2 0.4 0.5 0.4q1.4 0 2.8 0z"/>
	<path id="Layer" class="s0" d="m0.3 42.7c2.2-1.3 4.7-2.1 7.2-2.8 4.5-1.4 9.1-2.2 13.7-2.8 3.5-0.4 7-0.6 10.5-0.8q4.5-0.2 9.1 0c3.6 0.1 7.3 0.2 10.9 0.6 3.4 0.3 6.9 0.5 10.3 0.9 3.1 0.3 6.1 0.8 9.2 1.1 2.9 0.4 5.8 0.7 8.7 1.1 4.2 0.6 8.3 0.9 12.5 1 2.8 0.1 5.5-0.1 8.2-0.3q2.6-0.2 5.1-0.4 3.6-0.2 7.1-0.6c2.7-0.3 5.3-0.5 8-0.8q0 0.1 0.1 0.1c-2.6 0.8-5.3 1.3-7.9 1.8-3.4 0.8-6.8 1.4-10.2 1.9q-4.3 0.6-8.7 0.9c-2.9 0.2-5.9 0.2-8.8 0.1-2.7-0.1-5.4-0.3-8.1-0.6-2.5-0.3-4.9-0.5-7.4-0.7q-3.7-0.4-7.4-0.8-3-0.3-6-0.6-3.5-0.3-7.1-0.6-2.7-0.2-5.3-0.4c-5.8-0.3-11.6-0.6-17.5-0.5-4.2 0.1-8.4 0.3-12.6 0.8-4.6 0.5-9.1 1.2-13.5 2.5q-0.1-0.1-0.1-0.1z"/>
	<path id="Layer" class="s0" d="m47.1 61.9q0 7.1 0 14.2c0 0.7-0.1 0.9-0.8 0.9q-3.1-0.1-6.2 0c-0.5 0-0.7-0.2-0.7-0.7q0-14.4 0-28.8c0-0.6 0.3-0.6 0.8-0.6q3.1 0 6.2 0c0.6 0 0.7 0.1 0.7 0.7q0 7.2 0 14.3z"/>
	<path id="Layer" class="s0" d="m28.6 30.3c0.7 0 1.3 0 1.9-0.1 1.4-0.2 2.4-1.2 3.1-2.4 0.7-1 1-2.2 1.4-3.4 0.9-2.7 2.9-3.9 5.7-3.5 2.9 0.3 5.5 1.5 8 2.8 2.7 1.4 5.4 2.9 8 4.4 2.8 1.7 5.7 1.9 8.8 1 3.3-1 6.6-2.1 9.9-3 3-0.9 6.1-1.5 9.2-1.5 4.6 0 8.8 1.4 12.7 3.8 2.9 1.7 5.6 3.6 8.8 4.8 3.5 1.4 7.2 1.8 11 1.6 0.8 0 1.6-0.1 2.4-0.1-1 0.4-2.1 0.5-3.2 0.7-5.9 0.9-11.4-0.4-16.6-3.3-2.5-1.3-4.9-2.7-7.6-3.7-4.5-1.6-9.1-1.3-13.7-0.3-3.4 0.8-6.7 2.1-10 3.1-2 0.6-4 1.1-6.1 1.2q-2.8 0.1-5.3-1.2c-3.1-1.7-6.1-3.7-9.1-5.4-2.4-1.4-4.9-2.8-7.7-3.3-1.9-0.3-3.2 0.4-4 2.2-0.7 1.5-1.3 3-2.4 4.2-1.3 1.5-3.3 2.1-5.2 1.4z"/>
	<path id="Layer" class="s0" d="m2.1 31.3c0.3-3.2 1.1-6.1 3.1-8.6 1.9-2.2 4.7-3 7.4-1.9 1.7 0.6 3.1 1.6 4.3 2.9 1.9 2 3.8 4 5.8 6 3.8 3.8 7.3 4.4 12.3 2.3 0.8-0.3 1.7-0.7 2.5-1-1.8 1.8-3.9 3.2-6.4 3.8-3.7 1-6.9-0.3-9.7-2.6-2.2-1.8-4-4-5.9-6-1-1.1-2-2-3.3-2.7-2.5-1.4-4.8-0.8-6.7 1.7q-1.8 2.3-2.9 4.9c-0.1 0.4-0.3 0.7-0.5 1.2z"/>
	<path id="Layer" fill-rule="evenodd" class="s0" d="m128.5 50.2q0 0 0 0 0 0 0 0zm-2.8 3c-1.5 0-2.8-1.4-2.8-2.9 0-1.7 1.3-3 2.9-3 1.5 0 2.7 1.3 2.7 2.9 0 1.6-1.3 3-2.8 3zm-2.1-3c0 1.3 0.9 2.3 2.1 2.3 1.3 0 2.2-1 2.2-2.3 0-1.3-0.9-2.3-2.2-2.3-1.2 0-2.1 1-2.1 2.3z"/>
	<path id="Layer" class="s0" d="m120.8 38.9c0.2-0.1 0.4-0.1 0.6 0-0.1 0.2-0.3 0.1-0.5 0.1q-0.1 0-0.1-0.1z"/>
	<path id="Layer" class="s1" d="m0.3 0.1c-0.1 0.1-0.2 0.1-0.3 0l0.3-0.1c0 0 0 0.1 0 0.1z"/>
	<path id="Layer" class="s2" d="m107.1 65.8c0-1.2 0.2-2.5 1-3.5 1.4-1.9 4.2-1.9 5.6 0 1.4 1.8 1.4 5.3 0 7.1-1.5 2-4.4 1.9-5.8-0.2-0.6-1.1-0.8-2.2-0.8-3.4z"/>
	<path id="Layer" class="s2" d="m85 64q-1.4 0-2.8 0c-0.3 0-0.5 0-0.5-0.4 0.1-1.4 1.5-3.1 2.8-3.4 1.8-0.5 3.7 0.9 3.8 3.3 0 0.4-0.2 0.5-0.5 0.5q-1.4 0-2.8 0z"/>
	<path id="Layer" class="s2" d="m61.5 64q-1.4 0-2.8 0c-0.3 0-0.6 0-0.5-0.4 0.4-2 2-4.1 4.3-3.3 1.3 0.3 2.3 1.7 2.3 3.1 0 0.4-0.1 0.6-0.5 0.6q-1.4-0.1-2.8 0z"/>
	<path id="Layer" fill-rule="evenodd" class="s0" d="m123.6 50.2c0-1.3 0.9-2.3 2.1-2.3 1.3 0 2.2 1 2.2 2.3 0 1.3-0.9 2.3-2.2 2.3-1.2 0-2.1-1-2.1-2.3zm1.9-1.5q0 0 0 0 0 0 0 0zm-0.8 0.3c-0.1 0.7-0.1 1.4-0.1 2.1q0 0.3 0.3 0.3c0.2 0 0.3 0 0.4-0.1 0.2-1 0.5-0.6 0.8-0.1 0.1 0.2 0.3 0.3 0.6 0.2 0.3-0.2-0.1-0.3-0.1-0.5-0.1-0.2-0.1-0.3 0-0.5 0.5-1.2 0.2-1.7-1.1-1.7-0.2 0.1-0.8-0.3-0.8 0.3z"/>
	<path id="Layer" fill-rule="evenodd" class="s0" d="m125.5 48.7q0 0 0 0 0 0 0 0zm1.1 1.7c-0.1 0.2-0.1 0.3 0 0.5 0 0.2 0.4 0.3 0 0.5-0.2 0.1-0.4 0-0.5-0.2-0.3-0.5-0.7-0.9-0.8 0.1-0.1 0.1-0.2 0.1-0.4 0.1q-0.3 0-0.3-0.3c0-0.7 0-1.4 0-2.1 0.1-0.6 0.6-0.2 0.9-0.3 1.3 0 1.6 0.5 1.1 1.7zm-0.9-1.2c-0.3 0-0.4 0.1-0.4 0.4 0 0.3-0.1 0.6 0.4 0.6 0.3 0 0.5-0.1 0.5-0.5 0.1-0.3-0.2-0.4-0.5-0.5z"/>
	<path id="Layer" class="s0" d="m125.7 49.2c0.3 0.1 0.6 0.2 0.5 0.5 0 0.3-0.2 0.5-0.5 0.5-0.5 0-0.4-0.3-0.4-0.6 0-0.3 0.1-0.4 0.4-0.4z"/>
</svg>