<svg width="169" height="24" viewBox="0 0 169 24" fill="none" xmlns="http://www.w3.org/2000/svg">
<path d="M0 10.1973V6.31973H12.9048V10.1973H0ZM12.9048 19.5374V23.517C12.4218 23.7007 11.9456 23.8231 11.4626 23.898C10.9796 23.9728 10.4694 24 9.91836 24C7.7687 24 6.12245 23.3877 4.9932 22.1633C3.85714 20.9388 3.29252 19.2381 3.29252 17.068V0.0952381L8.47619 0V16.966C8.47619 17.6531 8.59864 18.2041 8.85034 18.6122C9.10204 19.0272 9.43537 19.3129 9.84353 19.4898C10.2585 19.6599 10.7007 19.7483 11.1837 19.7483C11.4558 19.7483 11.7279 19.7279 11.9932 19.6939C12.2585 19.6599 12.5578 19.6054 12.9048 19.5374Z" fill="white"/>
<path d="M30.8572 21.8708C30.0069 22.5374 28.9797 23.0544 27.7688 23.4354C26.5579 23.8095 25.3334 24 24.0953 24C22.1497 24 20.4763 23.6327 19.0681 22.898C17.66 22.1633 16.5783 21.1225 15.8232 19.7755C15.0681 18.4286 14.694 16.8231 14.694 14.9728C14.694 13.1225 15.0613 11.6123 15.7892 10.2381C16.5239 8.86396 17.5239 7.79593 18.796 7.02722C20.0681 6.25852 21.5443 5.87756 23.2382 5.87756C24.9321 5.87756 26.2722 6.23811 27.4627 6.9592C28.6531 7.68028 29.5647 8.70069 30.211 10.0136C30.8504 11.3333 31.1702 12.8912 31.1702 14.7007V15.4558H19.2586L19.3266 12.8844H28.0817L26.7416 13.9456C26.762 12.483 26.4831 11.3742 25.898 10.6327C25.313 9.89117 24.4763 9.51702 23.3742 9.51702C22.1838 9.51702 21.2654 9.94559 20.6123 10.8027C19.9593 11.6599 19.6327 12.9116 19.6327 14.5646C19.6327 16.5102 20.0137 17.9184 20.7824 18.7891C21.5511 19.6599 22.7212 20.0952 24.2994 20.0952C25.211 20.0952 26.1157 19.9456 27.0137 19.6463C27.9048 19.3469 28.728 18.9252 29.4831 18.3742L30.8572 21.8776V21.8708Z" fill="white"/>
<path d="M41.2586 24C39.7484 24 38.4083 23.6327 37.245 22.898C36.0749 22.1633 35.177 21.1225 34.5307 19.7755C33.8913 18.4286 33.5715 16.8435 33.5715 15.0408C33.5715 13.2381 33.8981 11.6395 34.5511 10.2517C35.2042 8.86396 36.1089 7.78913 37.2654 7.02722C38.4219 6.25852 39.7552 5.87756 41.2654 5.87756C42.66 5.87756 43.8981 6.2177 44.9729 6.90477C46.0477 7.59185 46.7824 8.51702 47.1702 9.68709L46.762 9.95919V6.31974H51.8777V23.7211H46.762V20.1497L47.1702 20.2177C46.7824 21.4082 46.0477 22.3333 44.9729 23C43.8981 23.6667 42.66 23.9932 41.2654 23.9932L41.2586 24ZM42.7688 20.0544C44.0273 20.0544 45.0069 19.6191 45.7008 18.7483C46.4015 17.8776 46.7484 16.6191 46.7484 14.9728C46.7484 13.3265 46.4015 12.0612 45.7008 11.1769C45.0001 10.2993 44.0273 9.85715 42.7688 9.85715C41.5103 9.85715 40.5239 10.3129 39.8028 11.2313C39.0817 12.1497 38.7212 13.415 38.7212 15.0408C38.7212 16.6667 39.0681 17.9048 39.7688 18.7619C40.4695 19.6191 41.4695 20.0476 42.7756 20.0476L42.7688 20.0544Z" fill="white"/>
<path d="M56.0543 23.7279V0.20407L61.238 0.0476074V23.7279H56.0543ZM68.0679 23.7279L60.3468 14.8707L67.7618 6.36053H73.9727L65.4285 16.0068L65.6666 13.6394L74.4217 23.7347H68.0679V23.7279Z" fill="white"/>
<path d="M81.6938 23.7279L74.6598 6.32654H79.9795L84.5782 18.7551H83.721L88.2856 6.32654H91.823L96.4217 18.7551H95.6666L100.197 6.32654H105.211L98.1768 23.7279H93.8162L88.7346 10.7211H90.9999L86.0884 23.7279H81.6938Z" fill="white"/>
<path d="M115.299 24C113.422 24 111.796 23.6326 110.422 22.8979C109.048 22.1632 107.993 21.1224 107.245 19.7551C106.503 18.3945 106.129 16.7891 106.129 14.9319C106.129 13.0748 106.503 11.4762 107.245 10.1292C107.986 8.78229 109.048 7.73467 110.422 6.98637C111.796 6.24488 113.422 5.87073 115.299 5.87073C117.177 5.87073 118.735 6.24488 120.102 6.98637C121.476 7.72787 122.531 8.77549 123.279 10.1292C124.02 11.483 124.394 13.0816 124.394 14.9319C124.394 16.7823 124.02 18.3945 123.279 19.7551C122.537 21.1156 121.476 22.1632 120.102 22.8979C118.728 23.6326 117.129 24 115.299 24ZM115.299 20.0544C116.558 20.0544 117.531 19.6394 118.218 18.8027C118.905 17.966 119.245 16.6802 119.245 14.9388C119.245 13.1973 118.905 11.9456 118.218 11.1088C117.531 10.2721 116.558 9.85712 115.299 9.85712C114.041 9.85712 113.027 10.2721 112.326 11.1088C111.626 11.9456 111.279 13.2177 111.279 14.9388C111.279 16.6598 111.619 17.966 112.306 18.8027C112.993 19.6394 113.986 20.0544 115.292 20.0544H115.299Z" fill="white"/>
<path d="M127.728 23.7279V11.2993C127.728 10.4762 127.707 9.64628 127.673 8.80955C127.639 7.97281 127.565 7.14288 127.449 6.31975H132.327L132.878 10.9184L132.327 10.6463C132.599 9.08846 133.258 7.91159 134.299 7.10887C135.34 6.30615 136.524 5.90479 137.85 5.90479C138.238 5.90479 138.592 5.9388 138.898 6.00683C139.204 6.07485 139.476 6.15649 139.707 6.24492L139.673 10.9796C138.83 10.5919 137.98 10.3946 137.136 10.3946C136.197 10.3946 135.422 10.5646 134.816 10.9116C134.211 11.2517 133.741 11.7415 133.408 12.3674C133.075 13 132.912 13.7483 132.912 14.6191V23.7143H127.728V23.7279Z" fill="white"/>
<path d="M141.803 23.7279V0.20407L146.986 0.0476074V23.7279H141.803Z" fill="white"/>
<path d="M168.646 23.7279H163.531V19.4694L163.939 20.2245C163.551 21.4149 162.816 22.3401 161.741 23.0068C160.667 23.6734 159.429 24 158.034 24C156.524 24 155.19 23.619 154.034 22.8503C152.877 22.0816 151.973 21.0204 151.32 19.6598C150.667 18.2993 150.34 16.7007 150.34 14.8707C150.34 13.0408 150.66 11.483 151.299 10.136C151.939 8.7891 152.843 7.74148 154.014 6.99318C155.184 6.25169 156.517 5.87754 158.027 5.87754C159.422 5.87754 160.66 6.22448 161.735 6.92516C162.809 7.62584 163.544 8.5442 163.932 9.68706L163.449 10.3061V0.20407L168.633 0.0476074V23.7279H168.646ZM159.551 20.0544C160.809 20.0544 161.789 19.619 162.483 18.7483C163.184 17.8775 163.531 16.6054 163.531 14.9388C163.531 13.2721 163.184 12.0884 162.483 11.1973C161.782 10.3061 160.809 9.85713 159.551 9.85713C158.292 9.85713 157.245 10.2925 156.544 11.1632C155.843 12.034 155.497 13.2721 155.497 14.8707C155.497 16.4694 155.857 17.8231 156.578 18.7143C157.299 19.6054 158.286 20.0544 159.544 20.0544H159.551Z" fill="white"/>
</svg>
